<svg xmlns="http://www.w3.org/2000/svg" width="255.653" height="201.192" viewBox="0 0 255.653 201.192">
  <g id="Grupo_250" data-name="Grupo 250" transform="translate(-3620.347 71.878)">
    <path id="Caminho_5331" data-name="Caminho 5331" d="M56.3,113.865A56.122,56.122,0,0,0,95.226,98.3h0l9.542-9.417a7.408,7.408,0,0,0-12.681-5.273L88.7,87h0L87.191,88.5a43.693,43.693,0,1,1,0-61.772L89.7,29.493l2.386,2.386a7.408,7.408,0,0,0,12.681-5.273v-.251l-9.417-9.417h0A56.337,56.337,0,1,0,16.881,97.794l.879.753,2.134,1.758A56.248,56.248,0,0,0,50.4,113.614l6.027.377" transform="translate(3620.568 -71.615)" fill="#997886"/>
    <path id="Caminho_5332" data-name="Caminho 5332" d="M247.71,57.88a56.248,56.248,0,0,0-94.04-41.809h-.126L126.8,42.814V0H114.121V109.608a6.34,6.34,0,1,0,12.681,0V72.947L153.67,99.815h.126a56.248,56.248,0,0,0,18.833,11.174,10.421,10.421,0,0,0,13.936-9.793,43.442,43.442,0,0,1-25.99-12.555l-.879-.879h-.126L129.69,57.88,160.7,26.868h0a43.693,43.693,0,0,1,61.647,61.772L219.209,91.4h.126l-95.17,95.546a5.524,5.524,0,0,1-7.784,0L51.47,122.54A78.471,78.471,0,0,1,30,118.523l77.341,77.341a18.2,18.2,0,0,0,25.738,0L231.514,97.43h0a56.122,56.122,0,0,0,16.2-39.549" transform="translate(3628.29 -71.878)" fill="#997886"/>
  </g>
</svg>
