<svg xmlns="http://www.w3.org/2000/svg" width="78.489" height="78.888" viewBox="0 0 78.489 78.888">
  <g id="icone3" transform="translate(-10.009 -8.45)">
    <g id="Grupo_2" data-name="Grupo 2" transform="translate(10.175 8.6)">
      <path id="Caminho_4" data-name="Caminho 4" d="M49.254,87.188c-2.3,0-3.637-2.872-4.5-5.839L33.172,84.22a1.433,1.433,0,0,1-1.436-.479,1.337,1.337,0,0,1-.287-1.436l1.532-3.925a1.7,1.7,0,0,1,.67-.766l9.285-5.265c-.766-5.169-1.244-11.87-1.723-20.2L11.73,53.972a1.448,1.448,0,0,1-1.34-.67,1.469,1.469,0,0,1,0-1.532l3.637-5.839a1.489,1.489,0,0,1,.766-.574l25.941-9.094c-.191-7.083-.191-12.061-.191-12.061,0-5.169,4.02-15.6,8.711-15.6s8.711,10.434,8.711,15.6c0,.1,0,5.073-.191,12.061l25.941,9.094a1.489,1.489,0,0,1,.766.574l3.637,5.839a1.469,1.469,0,0,1,0,1.532,1.286,1.286,0,0,1-1.34.67L57.2,52.154c-.479,8.328-.957,15.028-1.723,20.2l9.285,5.265a1.773,1.773,0,0,1,.67.766l1.532,3.925a1.337,1.337,0,0,1-.287,1.436,1.58,1.58,0,0,1-1.436.479L53.657,81.444C52.6,85.273,51.168,87.188,49.254,87.188Zm-3.446-9a1.556,1.556,0,0,1,1.436,1.053c.957,3.829,1.819,4.786,2.01,4.978.383-.287,1.244-1.532,2.01-4.978a1.218,1.218,0,0,1,.67-.861,1.4,1.4,0,0,1,1.053-.191l10.338,2.584-.383-.957-9.668-5.456a1.424,1.424,0,0,1-.67-1.436c.861-5.552,1.436-12.827,1.914-22.4A1.178,1.178,0,0,1,55,49.569a1.7,1.7,0,0,1,.957-.383l28.238,1.723-1.914-3.063L55.858,38.561a1.473,1.473,0,0,1-.957-1.436c.191-7.562.191-13.018.191-13.114,0-4.882-3.925-12.731-5.839-12.731s-5.839,7.849-5.839,12.731c0,.1,0,5.552.191,13.114a1.676,1.676,0,0,1-.957,1.436L16.229,47.846l-1.914,3.063,28.238-1.723a1.44,1.44,0,0,1,1.053.383,1.329,1.329,0,0,1,.479.957C44.563,60,45.137,67.373,46,72.925a1.424,1.424,0,0,1-.67,1.436l-9.764,5.456-.383.957L45.425,78.19Z" transform="translate(-10.175 -8.6)" fill="#a07987" stroke="#fff" stroke-width="0.3"/>
    </g>
  </g>
</svg>
