<svg xmlns="http://www.w3.org/2000/svg" width="79.988" height="79.988" viewBox="0 0 79.988 79.988">
  <g id="icone7" transform="translate(-763.75 -49.262)">
    <g id="noun_chart_2274880" transform="translate(764 49.512)">
      <g id="Camada_2" data-name="Camada 2" transform="translate(0)">
        <g id="Camada_1" data-name="Camada 1">
          <path id="Caminho_18" data-name="Caminho 18" d="M77.725,76.032H5.91L31.45,50.457l11.2,11.2a1.784,1.784,0,0,0,2.488,0L75.271,31.449V42.612a1.728,1.728,0,1,0,3.456,0V27.268A1.728,1.728,0,0,0,77,25.54H61.689a1.728,1.728,0,1,0,0,3.456H72.852l-29,29-11.2-11.2a1.728,1.728,0,0,0-2.454,0L3.456,73.578V1.728A1.728,1.728,0,1,0,0,1.728V77.76a1.728,1.728,0,0,0,.484,1.21h0a1.8,1.8,0,0,0,.553.346,1.762,1.762,0,0,0,.691.173H77.76a1.728,1.728,0,1,0,0-3.456Z" transform="translate(0 0)" fill="#a07987" stroke="#fff" stroke-width="0.5"/>
        </g>
      </g>
    </g>
    <path id="Caminho_19" data-name="Caminho 19" d="M40.694,292.705a1.165,1.165,0,0,0-1.148,1.182v2.346a7.31,7.31,0,0,0-3.144,1.328,6.429,6.429,0,0,0-2.545,4.676q0,.038-.006.077a6.042,6.042,0,0,0,1.871,4.753,10.535,10.535,0,0,0,3.933,1.971,21.033,21.033,0,0,1,3.677,1.4,3.987,3.987,0,0,1,2.032,2.408,4.7,4.7,0,0,1-.959,4,4.574,4.574,0,0,1-3.233,1.411,5.5,5.5,0,0,1-3.585-1.112,4.509,4.509,0,0,1-1.726-3.554,1.165,1.165,0,1,0-2.329.093,7,7,0,0,0,2.61,5.289,7.566,7.566,0,0,0,3.4,1.5v2.226a1.165,1.165,0,1,0,2.331,0v-2.165A6.761,6.761,0,0,0,46.14,318.4a7.2,7.2,0,0,0,1.524-6.006,1.165,1.165,0,0,0-.038-.17,6.559,6.559,0,0,0-3.142-3.813,21.465,21.465,0,0,0-4.106-1.585,8.949,8.949,0,0,1-3.1-1.491,3.416,3.416,0,0,1-1.086-2.934,3.947,3.947,0,0,1,1.607-2.968,5.321,5.321,0,0,1,3.287-.979,4.924,4.924,0,0,1,3.148,1.181,4.174,4.174,0,0,1,1.329,3.36,1.165,1.165,0,1,0,2.33.027,6.664,6.664,0,0,0-2.1-5.116,7.055,7.055,0,0,0-3.919-1.727v-2.286a1.165,1.165,0,0,0-1.183-1.182Z" transform="translate(751.283 -242.193)" fill="#a07987" stroke="#a07987" stroke-width="0.2"/>
  </g>
</svg>
