<svg xmlns="http://www.w3.org/2000/svg" width="191.597" height="46.616" viewBox="0 0 191.597 46.616">
  <g id="Grupo_223" data-name="Grupo 223" transform="translate(-3469.347 166.878)">
    <path id="Caminho_2909" data-name="Caminho 2909" d="M12.875,27.172a13,13,0,0,0,9.018-3.607h0L24.1,21.383a1.716,1.716,0,0,0-2.938-1.222l-.785.785h0l-.349.349a10.123,10.123,0,1,1,0-14.312l.582.64.553.553A1.716,1.716,0,0,0,24.1,6.955V6.9L21.922,4.715h0A13.053,13.053,0,1,0,3.741,23.449l.2.175.495.407a13.032,13.032,0,0,0,7.069,3.083l1.4.087" transform="translate(3469.568 -167.608)" fill="#997886"/>
    <path id="Caminho_2910" data-name="Caminho 2910" d="M80.441,13.41A13.032,13.032,0,0,0,58.653,3.723h-.029l-6.2,6.2V0H49.49V25.4a1.469,1.469,0,1,0,2.938,0V16.9l6.225,6.225h.029a13.032,13.032,0,0,0,4.363,2.589,2.414,2.414,0,0,0,3.229-2.269,10.065,10.065,0,0,1-6.022-2.909l-.2-.2H60.02L53.1,13.41l7.185-7.185h0A10.123,10.123,0,0,1,74.565,20.537l-.727.64h.029L51.817,43.314a1.28,1.28,0,0,1-1.8,0L34.974,28.391A18.181,18.181,0,0,1,30,27.461L47.919,45.38a4.218,4.218,0,0,0,5.963,0L76.689,22.574h0a13,13,0,0,0,3.753-9.163" transform="translate(3448.138 -166.878)" fill="#997886"/>
    <path id="Caminho_2911" data-name="Caminho 2911" d="M288.4,93.96,290.81,98.7a.2.2,0,0,1-.2.2h-.465a.407.407,0,0,1-.32-.2l-2.356-4.683h-4.334v4.742a.175.175,0,0,1-.174.145h-.582a.175.175,0,0,1-.175-.145V86.745a.175.175,0,0,1,.175-.145h5.44a3.493,3.493,0,0,1,3.287,3.782c0,2.211-1.164,3.316-2.705,3.578m-5.236-.931h4.305c1.425,0,2.676-.553,2.676-2.618a2.524,2.524,0,0,0-2.676-2.851h-4.334Z" transform="translate(3269.302 -228.286)" fill="#fff"/>
    <path id="Caminho_2912" data-name="Caminho 2912" d="M324.413,98.677v.989c0,.553.145.96,1.193.96h.262a.262.262,0,0,1,.2.087,2.306,2.306,0,0,1,.116.495c0,.029-.029.087-.116.116a2.706,2.706,0,0,1-.727.087c-.989,0-1.862-.175-1.862-2.153v-.553a6.283,6.283,0,1,1,.9,0m-.465-.9a5.352,5.352,0,1,0-5.294-5.352,5.294,5.294,0,0,0,5.323,5.323" transform="translate(3244.165 -227.971)" fill="#fff"/>
    <path id="Caminho_2913" data-name="Caminho 2913" d="M367.929,93.756V86.745a.175.175,0,0,1,.175-.145h.553a.174.174,0,0,1,.174.145v6.516c0,3.287,1.193,4.858,4.218,4.858s4.218-1.571,4.218-4.858V86.745a.174.174,0,0,1,.174-.145h.553a.175.175,0,0,1,.175.145v7.04c0,3.374-1.774,5.236-5.149,5.236s-5.12-1.862-5.12-5.236" transform="translate(3208.532 -228.286)" fill="#fff"/>
    <path id="Caminho_2914" data-name="Caminho 2914" d="M412.3,86.745a.175.175,0,0,1,.174-.145h.553a.175.175,0,0,1,.175.145V98.759a.175.175,0,0,1-.175.145h-.553a.175.175,0,0,1-.174-.145Z" transform="translate(3177.048 -228.286)" fill="#fff"/>
    <path id="Caminho_2915" data-name="Caminho 2915" d="M429.759,86.7v.582a.175.175,0,0,1-.175.2h-3.578v11.2a.175.175,0,0,1-.175.145h-.553a.175.175,0,0,1-.175-.145v-11.2h-3.636a.175.175,0,0,1-.175-.2V86.7a.2.2,0,0,1,.2-.2h8.058a.2.2,0,0,1,.2.2" transform="translate(3170.672 -228.215)" fill="#fff"/>
    <path id="Caminho_2916" data-name="Caminho 2916" d="M462.765,92.447a.2.2,0,0,1,.2.2v.582a.175.175,0,0,1-.175.2h-5.5v4.509h6.894a.2.2,0,0,1,.2.2v.582a.175.175,0,0,1-.174.2h-7.651a.175.175,0,0,1-.174-.2V86.745a.174.174,0,0,1,.174-.145h7.651a.2.2,0,0,1,.2.2v.582a.175.175,0,0,1-.175.2h-6.923v4.887Z" transform="translate(3145.782 -228.286)" fill="#fff"/>
    <path id="Caminho_2917" data-name="Caminho 2917" d="M497.23,86.7v.582a.174.174,0,0,1-.174.2h-3.578v11.2a.175.175,0,0,1-.175.145h-.553a.175.175,0,0,1-.174-.145v-11.2h-3.607a.175.175,0,0,1-.175-.2V86.7a.2.2,0,0,1,.2-.2h8.058a.2.2,0,0,1,.2.2" transform="translate(3122.807 -228.215)" fill="#fff"/>
    <path id="Caminho_2918" data-name="Caminho 2918" d="M523.729,93.756V86.745a.175.175,0,0,1,.175-.145h.553a.174.174,0,0,1,.174.145v6.516c0,3.287,1.193,4.858,4.218,4.858s4.218-1.571,4.218-4.858V86.745a.175.175,0,0,1,.174-.145h.553a.174.174,0,0,1,.175.145v7.04c0,3.374-1.774,5.236-5.149,5.236s-5.12-1.862-5.12-5.236" transform="translate(3098.053 -228.286)" fill="#fff"/>
    <path id="Caminho_2919" data-name="Caminho 2919" d="M574.267,93.96l2.415,4.742a.2.2,0,0,1-.2.2h-.466a.407.407,0,0,1-.32-.2l-2.356-4.683h-4.305v4.742a.175.175,0,0,1-.175.145h-.582a.175.175,0,0,1-.175-.145V86.745a.175.175,0,0,1,.175-.145h5.44A3.493,3.493,0,0,1,577,90.382c0,2.211-1.164,3.316-2.705,3.578m-5.236-.931h4.305c1.425,0,2.676-.553,2.676-2.618a2.524,2.524,0,0,0-2.676-2.851h-4.334Z" transform="translate(3066.569 -228.286)" fill="#fff"/>
    <path id="Caminho_2920" data-name="Caminho 2920" d="M622,98.592h-.465a.4.4,0,0,1-.262-.145l-1.425-2.356-.378-.64h0L614.7,87.6l-3.927,6.545h3.665a.2.2,0,0,1,.2.2v.582a.175.175,0,0,1-.175.2h-4.276l-.2.349h0l-.378.64-1.425,2.356a.407.407,0,0,1-.291.145h-.465c-.116,0-.175-.116-.146-.262l1.92-3.229h-1.629a.175.175,0,0,1-.174-.2v-.582a.2.2,0,0,1,.2-.2h2.182l4.742-7.941h.349l7.272,12.13c.029.145-.029.262-.146.262" transform="translate(3038.79 -228.003)" fill="#fff"/>
    <path id="Caminho_2921" data-name="Caminho 2921" d="M239.63,98.592h-.465a.407.407,0,0,1-.291-.145l-1.425-2.356-.378-.64h0L232.329,87.6,228.4,94.141h3.665a.2.2,0,0,1,.2.2v.582a.175.175,0,0,1-.175.2h-4.305l-.2.349h0l-.378.64-1.425,2.356a.407.407,0,0,1-.291.145h-.465c-.116,0-.175-.116-.145-.262l1.92-3.229h-1.6a.175.175,0,0,1-.175-.2v-.582a.2.2,0,0,1,.2-.2h2.182l4.742-7.941h.349l7.272,12.13c.029.145-.029.262-.145.262" transform="translate(3309.952 -228.003)" fill="#fff"/>
    <path id="Caminho_2922" data-name="Caminho 2922" d="M288.1,37.527V33.8h.785v7.214H288.1V38.574l-3.811-3.2v5.643H283.5V33.6Z" transform="translate(3268.38 -190.704)" fill="#fff"/>
    <path id="Caminho_2923" data-name="Caminho 2923" d="M318,31.525c0-2.036,1.193-3.694,3.229-3.694s3.229,1.658,3.229,3.694-1.193,3.694-3.229,3.694S318,33.561,318,31.525m5.643.029c0-1.6-.814-2.909-2.414-2.909s-2.414,1.309-2.414,2.909.815,2.909,2.414,2.909,2.414-1.309,2.414-2.909m-2.036-4.538h-.7l.785-1.716h1.047Z" transform="translate(3243.916 -184.818)" fill="#fff"/>
    <path id="Caminho_2924" data-name="Caminho 2924" d="M359.007,34.947a5.643,5.643,0,0,0-1.4-.233c-1.338,0-1.4.9-1.4,1.164,0,1.658,3.578,1.164,3.578,3.607,0,1.164-1.251,1.8-2.24,1.8a4.131,4.131,0,0,1-2.153-.582l.262-.64a4.16,4.16,0,0,0,1.833.465c.844,0,1.513-.378,1.513-1.076,0-1.629-3.578-1.193-3.578-3.607,0-1.251.756-1.949,2.124-1.949a5.033,5.033,0,0,1,1.774.378Z" transform="translate(3217.396 -190.917)" fill="#fff"/>
    <path id="Caminho_2925" data-name="Caminho 2925" d="M439.314,36.1v4.916H438.5V33.6l3.054,4.16,3.025-4.16v7.418h-.785V36.1l-2.24,3.054Z" transform="translate(3158.469 -190.704)" fill="#fff"/>
    <path id="Caminho_2926" data-name="Caminho 2926" d="M510.285,36.1v4.916H509.5V33.6l3.025,4.16,3.054-4.16v7.418h-.815V36.1l-2.24,3.054Z" transform="translate(3108.123 -190.704)" fill="#fff"/>
    <path id="Caminho_2927" data-name="Caminho 2927" d="M546.3,37.694c0-2.036,1.193-3.694,3.229-3.694s3.229,1.658,3.229,3.694-1.193,3.694-3.229,3.694-3.229-1.658-3.229-3.694m5.643.029c0-1.6-.814-2.909-2.414-2.909s-2.414,1.309-2.414,2.909.814,2.909,2.414,2.909,2.414-1.309,2.414-2.909" transform="translate(3082.028 -190.987)" fill="#fff"/>
    <path id="Caminho_2928" data-name="Caminho 2928" d="M587.307,34.947a5.644,5.644,0,0,0-1.4-.233c-1.338,0-1.4.9-1.4,1.164,0,1.658,3.578,1.164,3.578,3.607,0,1.164-1.251,1.8-2.24,1.8a4.131,4.131,0,0,1-2.153-.582l.262-.64a4.16,4.16,0,0,0,1.833.465c.844,0,1.513-.378,1.513-1.076,0-1.629-3.578-1.193-3.578-3.607,0-1.251.756-1.949,2.124-1.949a5.032,5.032,0,0,1,1.774.378Z" transform="translate(3055.507 -190.917)" fill="#fff"/>
    <path id="Caminho_2929" data-name="Caminho 2929" d="M407.362,41.249l-.524.32a.116.116,0,0,1-.145-.029l-3.316-5.585-1.745,2.909h1.542a.116.116,0,0,1,.116.116v.611a.116.116,0,0,1-.116.116h-2.036l-1.076,1.8a.116.116,0,0,1-.175.029l-.524-.32a.116.116,0,0,1-.029-.175l.844-1.4h-.7a.116.116,0,0,1-.116-.116v-.524a.116.116,0,0,1,.116-.116H400.7l2.618-4.334a.145.145,0,0,1,.233,0l3.927,6.574a.116.116,0,0,1-.029.145" transform="translate(3186.261 -191.342)" fill="#fff"/>
    <path id="Caminho_2930" data-name="Caminho 2930" d="M478.762,41.249l-.524.32a.116.116,0,0,1-.145-.029l-3.316-5.585-1.745,2.909h1.542a.116.116,0,0,1,.116.116v.611a.116.116,0,0,1-.116.116h-2.036l-1.076,1.8a.116.116,0,0,1-.175.029l-.524-.32a.116.116,0,0,1-.029-.175l.815-1.4h-.7a.116.116,0,0,1-.116-.116v-.524a.116.116,0,0,1,.116-.116h1.222l2.618-4.334a.145.145,0,0,1,.233,0l3.927,6.574a.087.087,0,0,1-.029.145" transform="translate(3135.631 -191.342)" fill="#fff"/>
    <rect id="Retângulo_310" data-name="Retângulo 310" width="191.526" height="46.616" transform="translate(3469.411 -166.878)" fill="none"/>
  </g>
</svg>
