<svg xmlns="http://www.w3.org/2000/svg" width="563.097" height="323.837" viewBox="0 0 563.097 323.837">
  <g id="Artwork_11" data-name="Artwork 11" transform="translate(281.548 161.918)" opacity="0.202">
    <g id="Grupo_476" data-name="Grupo 476" transform="translate(-281.548 -161.918)">
      <path id="Caminho_16522" data-name="Caminho 16522" d="M1194.94-.112c2.988,1.538,6.108,2.944,8.964,4.7a59.072,59.072,0,0,1,5.844,4.614,17.229,17.229,0,0,1-1.714-.439c-1.142-.439-2.109-.7-3.076.527a2.214,2.214,0,0,1-2.021.571c-.615-.176-.659-1.186-.659-1.8.044-3.647-2.724-5.844-6.2-4.658-.307.088-.132,1.45-.264,2.856-.835.615-2.549,1.626-1.626,3.955-2.68,1.889-.923,6.723-5.1,7.6-.088,0-.088.352-.22.835l1.977-.967-10.238,12.743-.615-.4a9.265,9.265,0,0,1,.967-1.889c1.977-2.329,4.042-4.614,6.064-6.943.351-.439,1.011-1.186.835-1.45-1.582-2.592,1.186-2.944,2.065-4.262l2.593-3.691-.571-.7-3.867.747-.176-.439a12.338,12.338,0,0,1,2.373-.747c1.8-.176,2.2-1.362,2.329-2.856s.527-1.845.264-2.592-1.186-.879-2.153-1.1c-.483-1.23.264-1.977,1.582-2.549s1.406-1.186,2.065-1.758Z" transform="translate(-661.327 0.2)"/>
      <path id="Caminho_16523" data-name="Caminho 16523" d="M-.233,611.63l2.5-9.623.835-3.208c.308.527.615.747.571.923-.791,4-1.582,8-2.461,11.952-.044.22-.923.264-1.406.4S-.233,611.762-.233,611.63Z" transform="translate(0.416 -335.6)"/>
      <path id="Caminho_16524" data-name="Caminho 16524" d="M1249.75,0l2.329,7.558a46.63,46.63,0,0,1-4.789-1.933c-.22-.088.044-1.1.088-2.329l2.021,2.241.307-2.5c-2.417-.483-1.933-1.714-.879-3.032Z" transform="translate(-699.001 0.088)"/>
      <path id="Caminho_16525" data-name="Caminho 16525" d="M487.778,467.075l-17.8-2.417c-4.042-.527-8.129-1.011-12.171-1.45-.439-.044-.923.308-1.406.4s-1.845.571-2.285.22c-2.68-2.2-5.932-1.626-8.964-2.065-6.2-.923-12.479-1.45-18.718-2.285-5.361-.7-10.677-1.714-16.038-2.373a10.452,10.452,0,0,0-4.482.967L447.573,464v.439L436.1,462.857l-40.2-5.492c-7.514,1.362-14.72-1.23-22.058-1.889s-14.061-1.977-21.047-2.988L308.108,445.9c-2.988-.439-5.932-.923-8.92-1.186a10.853,10.853,0,0,0-2.768.615c-.923.176-1.23.176-1.45-.044a2.725,2.725,0,0,1-.571-1.758c.352-5.888.835-11.776,1.055-17.62.308-7.689.4-15.379.615-23.025a1.318,1.318,0,0,1,.22-.791l.923,9.667h-.088l-.264-2.065H296.2V415.4l.088,25.661c0,1.274.527,1.845,1.845,1.889s3.647.352,5.449.571,1.845-.659,1.889-1.889c.264-7.206,1.142-14.456.7-21.618s.176-15.555,0-23.288c-.088-3.6-.044-7.162-.044-10.765V383.9h.615c.088.879.264,1.758.308,2.636.132,2.285-.176,4.614.4,6.767,1.714,6.547.088,13.05.088,19.553s-.132,13.314-.308,19.949c-.044,2.241-.308,4.482-.527,6.679s.615,2.2,2.109,2.373c2.592.308,5.229.659,7.821,1.142,1.67.308,2.109-.4,2.153-1.845.176-4.745.483-9.491.527-14.28.088-8.964.044-17.927.483-26.935v8.48h.264l.659-23.024h.308c0,3.252.088,6.459-.044,9.711-.044,1.758.264,2.5,2.285,2.373a41.742,41.742,0,0,1,6.547.22c2.944.22,3.955-.791,3.867-3.691s-.132-6.855-.044-10.282c0-.659.791-1.274,1.23-1.933a6.052,6.052,0,0,1,.791,2.021c0,3.735-.044,7.47-.264,11.2-.088,1.8.571,2.329,2.285,2.241s3.471,0,5.361,0l-.22,2.153H327.046c-.22,0-.439-.439-1.1-1.142L321.553,398l-.088.527,3.12.22v.308a3.559,3.559,0,0,1-1.142.22c-2.5-.4-2.856,1.055-2.9,3.076q-.527,19.509-1.142,39.019v1.318l.923-1.055c-.308,1.933.791,2.021,2.2,2.153,2.768.264,5.492.747,8.217,1.186,1.1.176,1.8,0,1.845-1.406s-.439-1.8-1.8-1.758a40.512,40.512,0,0,1-6.9-.308H332.1v-.7h-11.82v-.7c2.417,0,4.789-.044,7.206,0,6.2.132,5.053.659,5.185-4.965s.308-12.435.483-18.631c.044-2.109-.483-4.218.483-6.371s-.044-2.5-2.065-2.417a51.186,51.186,0,0,1-9.974-.439h4.7v-.264l-3.779-.659v-.615c3.12,0,6.283-.044,9.4,0,1.538.044,2.021-.7,2.021-2.153a25.574,25.574,0,0,1,.483-3.471h.791c.044,1.186.22,2.373.176,3.559s.4,1.889,1.758,1.8,3.779,0,5.844,0l-.176,2.2c-1.933,0-3.779.088-5.58-.044s-1.845.352-1.8,1.714c.044,6.679.044,13.314-.044,19.993-.044,2.592-.439,5.185-.615,7.821s-.044,2.285,2.065,3.032l-.132.132h-.22l-.615.527,1.758.088a4.351,4.351,0,0,1,1.318.176,5.806,5.806,0,0,0-1.538.088,28.531,28.531,0,0,0-2.636,1.626c.747.835,1.362,2.2,2.241,2.461,4.482,1.1,8.964,2.065,13.533,2.812s9.4,1.186,14.544,1.8c.176-3.383.308-6.635.483-9.886s.571-7.558.7-11.293a17.987,17.987,0,0,0-.7-3.6,15.069,15.069,0,0,1-.22-2.592c.132-11.073.264-22.1.4-33.175.044-4.394,0-8.744,0-13.314-.835.132-1.582-.747-1.977.835-.088.439-1.977.615-3.032.747-4,.483-8,.967-12,1.23s-8.788.308-13.138.439c-.659,0-1.274-.088-1.933-.088s-1.142-.176-1.274,0c-1.8,2.812-4.438.879-6.635,1.186a23.4,23.4,0,0,1-7.909.22c-2.812-.571-5.932.747-8.92.791-1.889.044-3.779-.747-5.756-.967a5.447,5.447,0,0,0,1.494-.22,1.274,1.274,0,0,0,.7-.879,1.142,1.142,0,0,0-.791-.747,7.162,7.162,0,0,0-3.427.439l2.636.483v.352l-4.086-.439c1.626-1.362,138.586-10.546,143.244-9.842l-29.923,2.373v.4l40.381-2.285c-2.768-2.065-5.976-.088-8.568-.967l59.978-4.789v86.342h-.176V444.8h-.264v24.65h-.527V385.875h-.044v13.358h.308V366.277l-48.817,2.636v.571l46.181-2.329.176.967a10.983,10.983,0,0,1-2.021.571l-14.676,1.142c-7.338.615-14.676,1.362-22.058,1.977a37.519,37.519,0,0,1-4.438-.22c-1.45-.044-1.977.571-1.889,2.021q.176,3.6.088,7.25c-.044,1.582.571,2.153,2.109,1.845a11.814,11.814,0,0,0,2.944-.659l-4.306-.791.176-1.142c7.689,2.241,15.643.264,23.288,2.68l.132-.791-1.626-.439a16.525,16.525,0,0,1,2.2-.439c.967-.088,2.461-.439,2.9.044,1.274,1.362,2.592.835,4,.791s3.208.22,4.789.176,4.306-.352,6.459-.483a13.836,13.836,0,0,1,1.67.088v4.306c-3.691-.176-7.426-.22-11.073-.615-1.889-.176-2.549.308-2.549,2.153.044,3.515.132,7.03,0,10.546-.22,5.756-.527,11.512-.879,17.268-.044.879-.527,1.758-.527,2.724l.571-1.011h.615v9.711l-.264-.659-.923,2.329h-.483l-.747-4.745H484.7a23.718,23.718,0,0,1-.044,3.252c-.088.571-.615,1.055-.923,1.582-.4-.527-1.142-1.1-1.142-1.626-.132-4.7-.176-9.359-.176-14.061s.132-10.106.088-15.159c-.044-4-.22-8-.352-12-.044-1.494-.7-2.329-2.285-2.373-3.12-.088-6.283-.308-9.4-.352-4-.088-8.041,0-12.04-.132-1.362-.044-1.889.527-1.845,1.8a20.392,20.392,0,0,1-.132,2.988l-.176-3.208h-.264v33.746l1.142-.4.659,3.955h.615V386.358h.615l.4,3.252,2.285.4v30.846h1.1V395.937l1.186-.22a9.4,9.4,0,0,1,.967,2.9c-.22,7.733-.527,15.511-.879,23.244-.044,1.186-.176,2.285-1.714.923a1.181,1.181,0,0,0-1.142-.044c-.835,1.186-1.714,1.758-2.944.527-.439.483-1.142.879-1.274,1.406a24.259,24.259,0,0,0-.088,3.3c-.22,9.93-.352,19.9-.7,29.835-.088,2.153.879,2.812,2.68,3.032,8,1.055,15.95,1.977,23.9,3.208,6.2.967,12.347,2.241,18.5,3.427a5.522,5.522,0,0,1,1.45.747c-.879.352-1.406.747-1.845.7-4.438-.571-8.832-1.23-13.226-1.889h3.339v-.439l-14.193-1.933-.088.527,2.9.483Zm-35.02-95.7c-4.833.7-8.92,1.494-13.006,1.845s-9.139.4-13.709.615l-15.994.879c-1.23.044-2.021.308-2.065,1.889-.176,7.03-.483,14.017-.7,21.047-.088,3.735.439,3.911,4,5.317s7.294.747,10.809,1.626,5.932,1.582,9.315,2.5V385.259l-9.8-1.23v-.22l27.023-.835v.4l-2.153.439,2.021.351c-4.614.132-9.227.176-13.841.088-1.977-.044-2.724.615-2.636,2.636.132,4.438.044,8.876.044,13.358h.176l-.176-2.812c-.22,2.461-.088,4.965-.264,7.382s.527,4.394,2.812,5.536c.088.044.132.264.22.439l-1.318,1.714c-3.339-4-7.821-5.624-12.523-6.371s-8.964-2.724-13.885-2.636v11.424a4.613,4.613,0,0,0,.132,1.23c1.889.088.835,1.318.835,2.109s-.088,1.318-.044,1.977c.088,6.064.308,12.127.264,18.191,0,1.8-.879,3.559-1.011,5.361-.176,2.636.044,5.273-.132,7.909-.132,1.889.7,2.636,2.373,2.9l13.05,1.845c5.009.7,10.018,1.23,14.983,2.021s10.15,1.8,15.73,2.812C454.779,431.133,452.933,401.473,452.758,371.374ZM383.64,383.326h-9.755a7.207,7.207,0,0,1-2.153-.22c-2.241-.7-3.032-.352-3.208,1.889-.308,3.867-.659,7.733-.747,11.6-.132,7.294.044,14.588.439,21.882.483,9.227-.439,18.543-.747,27.814-.088,3.032-.088,3.076,2.988,3.559l33.922,5.141a10.147,10.147,0,0,0,.22-1.494c.22-7.953.571-15.95.615-23.9.088-16.917.044-33.79,0-50.707,0-1.274-.176-2.549-.308-4-9.227.879-18.1,1.406-26.935,2.549l.088.615h10.809v.22h-5.536v.352l2.021.351c-4.746-.044-9.491-.308-14.237-.659a11.993,11.993,0,0,1-2.153-.571c-.088.967-.176,1.977-.176,2.944a7.032,7.032,0,0,0,.4,1.582c.7-.088,1.845.044,2.065-.352.967-1.582,2.373-.967,3.647-.967l16.873.308a32.082,32.082,0,0,0,3.647-.352v-.439l-6.986-1.186c4.833,0,9.623.22,14.456.483.4,0,.747.615,1.362,1.23-4.482.264-8.436.4-12.347.747s-7.6.879-11.732,1.362Zm20.74,74.61.176-1.274-36.338-4.877-.088.747c12,2.5,24.211,3.471,36.25,5.361Zm-72.9-80.146v-.439L308.2,378.668v.439ZM364,452.356l.088-.747-17.576-2.285-.088.483ZM318.17,446.38l.132-.967-10.546-1.362-.088.747Zm179.363-62.263v-.7c-2.68,0-5.4-.044-8.085.044-.439,0-.879.527-1.318.791.4.22.791.7,1.142.659C492.04,384.688,494.808,384.381,497.532,384.117Zm-68.151,74.522-.088.527,13.314,1.845.088-.527Zm56.638-61.076h.615l-.835-10.546h-.527ZM342.6,448.8v-.571l-6.986-1.1-.088.923Zm21.311-73.38v-.308l-10.809.571v.4Zm9.227-.967-.088.483,9.4-.7v-.4Z" transform="translate(-164.856 -204.139)"/>
      <path id="Caminho_16526" data-name="Caminho 16526" d="M1126.559,327.883l.176-.176,1.582-.308c.747,4.482.791,8.7-.967,12.787l1.67-1.626c.22,5.4.4,10.238.571,15.115.044.923.176,2.065-1.362,1.933s-2.549-.352-2.593-2.021c-.044-4.262-.088-8.568-.132-12.83,0-.308-.264-.615-.4-.923l-.439.088v31.944h-.615V351.259a109.044,109.044,0,0,0-.308,13.885c.22,4.394,1.1,8.744,1.274,13.138.264,7.382.176,14.764.308,22.146.22,12.435.571,24.87.747,37.3,0,.791-.747,2.2-1.274,2.285-4.174.571-8.392.879-12.655,1.274-.088-.879-.22-1.406-.22-1.977-.527-14.193-1.143-28.385-1.538-42.578-.527-18.938-.879-37.92-1.318-56.858-.044-1.845-.176-3.647-.044-5.492.044-.571.879-1.538,1.23-1.494,2.944.4,5.844.967,8.7,1.45l-.264,2.812C1122.78,334.914,1124.318,331.091,1126.559,327.883Z" transform="translate(-621.507 -183.453)" fill="#fff"/>
      <path id="Caminho_16527" data-name="Caminho 16527" d="M1120.858,218.342c-2.285,3.208-3.779,7.03-7.865,9.315l.264-2.812c-2.856-.527-5.8-1.1-8.7-1.45-.352-.044-1.186.967-1.23,1.494-.132,1.8,0,3.647.044,5.492.439,18.938.791,37.92,1.318,56.858.4,14.193,1.011,28.385,1.538,42.578,0,.571.132,1.142.22,1.977,4.306-.4,8.524-.7,12.655-1.274.527-.088,1.274-1.494,1.274-2.285-.176-12.435-.527-24.87-.747-37.3-.132-7.382-.044-14.764-.308-22.146-.176-4.394-1.054-8.744-1.274-13.138a109.044,109.044,0,0,1,.308-13.885V262.37h.615V230.381l.439-.088c.132.308.4.615.4.923.088,4.262.088,8.568.132,12.83.044,1.714,1.318,1.933,2.593,2.021s1.362-1.011,1.362-1.933c-.176-4.877-.352-9.755-.571-15.115l-1.67,1.626c1.758-4.086,1.714-8.349.967-12.787l-1.582.308c1.45-1.45,1.626-3.208,1.494-5.185-.571-11.249-1.055-22.541-1.406-33.79-.132-5.053.176-10.15.264-15.2a2.549,2.549,0,0,0-.439-1.494l-.22,1.362V143.38h.7c.088.659.176,1.318.22,1.977q.483,19.2.879,38.4c.044,2.021-.264,4.086-.176,6.152s.659,4.262.747,6.415c.4,8.393.7,16.829,1.055,25.221.044.7.132,1.362.176,2.373,2.021-2.636,2.241-4.13,1.582-8.744-1.582,0-1.845-.4-.791-1.1l1.538-1.1c.22,4.789.483,9.4.571,13.973s1.626,8.7.967,13.05h-1.274V222.428a6.61,6.61,0,0,0-2.549,6.152c.308,4.965.615,9.93.659,14.94,0,2.241.7,3.12,2.9,3.3,7.338.659,14.676,1.45,22.014,2.2a36.051,36.051,0,0,1,3.6.747l-.176.7-16.39-1.714-.088.352,1.714-.264v-.4l-13.05-1.23c0,2.856-.088,5.624.088,8.436,0,.352,1.23.835,1.89.879,5.756.264,11.556.439,17.312.615l2.593.22.307.571-2.46,1.538.571,8.568h.351V261.8h.7v24.387c-1.45-2.461-3.251-4.262-3.12-6.943.22-5.888.571-11.776.791-17.708a1.961,1.961,0,0,0-1.23-1.494c-3.559-.308-7.118-.439-10.677-.615-1.626-.088-1.626,1.274-1.714,2.241-.22,4.086-.352,8.173-.439,12.3s-.088,9.052-.176,13.533a3.583,3.583,0,0,1-.483,1.23l-.615.088-2.241-4.438c-.22-.044-.835,0-1.1-.308s-.176-.835-.176-1.274c0-6.108,0-12.259-.352-18.367V277.09h-.307l-1.142-19.334-3.911-.483c0,6.239-.088,12.435,0,18.63q.307,16.565.791,33.175c.176,6.371.659,12.7.923,19.07.044,1.406.439,2.021,1.845,2.065a13.148,13.148,0,0,0,3.164.088c-6.283.923-12.611,1.8-18.894,2.812a2.488,2.488,0,0,0-1.494,1.846,37.932,37.932,0,0,0,.4,5.317c-1.186.22-1.977.22-1.977-1.362-.088-13.753-.088-27.506-.4-41.26-.527-22.541-1.318-45.082-1.977-67.623-.132-4.218-.132-8.48-.22-12.7a9.138,9.138,0,0,0-.439-1.626c-.132-.615-.571-1.494-.307-1.845,1.889-2.724.483-5.668.967-8.568l-2.768,1.67c2.417-2.68,1.758-5.712,1.1-8.92l-1.933.747c.308-.571.4-.923.615-1.011,2.285-1.055,1.626-3.032,1.582-4.833-.4-11.468-.791-22.981-.835-34.493l.615,5.449h.264c0-5.317.044-10.59-.044-15.906,0-.791-.571-1.582-.527-2.285.176-2.285.923-4.7.439-6.811-.791-3.515.879-5.273,3.383-6.9h-.088a2.081,2.081,0,0,0,3.34.7c1.054-.747,1.977-.22,2.329,1.406l.615-.967c1.8,3.208,2.417,3.515,4.042,2.5l1.538,1.538-1.582.879.132-.439a12.1,12.1,0,0,0-2.988-.483c-.967.088-.879,1.23-.835,1.933.044,2.549.264,5.053.4,7.733,4.13-1.23,2.109-4.658,2.944-7.689l2.5,3.3,2.241-1.933c1.45,1.186,1.406,1.362-.088,2.417s-3.515,1.714-3.383,4.174l-1.142-.923V151.2h-.439V146.94c-1.933.615-2.768,1.494-2.724,3.383.352,15.555.571,31.153.967,46.708.088,2.944.747,5.888,1.011,8.832.132,1.714-.132,3.471-.088,5.185s.615,2.329,2.549,1.889l-.791-40.864h.527l2.329,48.949.527.264Zm-17-75.181a2.914,2.914,0,0,0-2.021,3.032c0,1.494-.044,1.758-.044,2.636q.483,24.343,1.055,48.729a3.691,3.691,0,0,0,1.055,2.241,19.818,19.818,0,0,0,2.68,1.933c.879.659,1.977,1.626,2.944,2.461l.571-.22V193.428h.527l.659,6.679h.219l-1.142-43.325h-.088V167.02h-.307l-1.23-21.662h.615l.615,2.329h.307l-.439-9.227-.659-.352-5.317,5.317Zm8.217,69.469-.527-5.009c-4.57,3.559-9.667,6.239-8.3,12.962a.744.744,0,0,1,0,.22c-.132,1.582.615,2.2,2.2,2.241a34.08,34.08,0,0,1,6.327.571c3.515.791,5.229-.7,4.526-4.174a7.456,7.456,0,0,1-.264-2.592c.4-1.977-.7-2.549-2.636-3.032v3.032c0,.967.044,2.065-.044,3.076a17.718,17.718,0,0,1-.439,2.461c-1.626-3.515,1.142-8.217-4-10.194Zm-8.832.132a75.2,75.2,0,0,0,6.371-4.745,2.92,2.92,0,0,0,.176-2.68c-1.933-1.494-4.13-2.636-6.547-4.13Zm18.5,34.888c-.483.527-1.494,1.1-1.626,1.8a34.222,34.222,0,0,0-.22,5.668c0,1.626,1.406,1.318,2.285,1.186s1.8-.7,1.8-1.1c0-2.373-.176-4.789-.4-7.162s-1.494-1.406-2.5-1.362l-.22.571Zm-13.577-110.509c-3.691-.747-4.394-.571-4.658.967s-.307,2.329-.439,3.559Zm35.987,122.241v-.615h-9.4v.132ZM1101.612,196.5h.176V184.9h-.176Zm-.4-18.982h.088V166.976h-.088Z" transform="translate(-615.805 -73.912)"/>
      <path id="Caminho_16528" data-name="Caminho 16528" d="M27.1,618.9c2.065.835,4.13,1.714,6.283,2.5a4.35,4.35,0,0,0,1.933.132l46.357-5.273a3.911,3.911,0,0,0,1.933-.747c-.571-.176-1.1-.4-1.67-.527l-28.649-6.283c-1.977-.439-4-.747-5.932-1.318-.615-.176-1.011-.967-1.538-1.45h-.044l15.862,3.383c3.12.659,6.239,1.23,9.359,1.933.967.22,1.845.967,2.856,1.142s3.3.132,4.877.483,3.911,1.362,5.932,1.933a11.6,11.6,0,0,0,3.735.659c2.856-.132,5.668-.571,8.92-.923l-.923.527v.439c1.23-.264,2.5-.439,3.735-.747s2.417-.967,3.647-1.142c7.382-1.055,14.808-1.933,22.19-2.988a57.908,57.908,0,0,0,8.524-1.977L128.729,608h3.208V607.7l-19.2-3.735v-.4l21.135,3.252v-.176l-22.409-8.261.132-.439a8.433,8.433,0,0,1,1.23.264c6.108,2.2,12.259,4.35,18.323,6.635a39.018,39.018,0,0,0,19.026,2.329c11.38-1.406,22.849-2.329,34.273-3.6s23.244-2.724,34.844-4.174c.7-.088,2.461.615,2.153-1.362h7.733v-.659l-99.919-19.378v-.527a20.955,20.955,0,0,1,4.394.044c5.273,1.1,10.458,2.549,15.687,3.515,15.027,2.768,30.1,5.273,45.082,8.085,29.4,5.448,58.792,11.073,88.187,16.609a66.908,66.908,0,0,1,10.062,2.373l-8.7-1.626c-14.1-2.592-28.165-5.229-42.27-7.777-1.274-.22-2.724.352-4.042.264a42.152,42.152,0,0,0-5.58-.4,7.639,7.639,0,0,1-2.329,1.142c-5.58.7-11.2,1.274-16.785,1.933a8.34,8.34,0,0,0-2.065.879l-13.358.923v.659l13.4-1.626,11.512-1.274v.483l-161.084,19.9-.088-.264,1.011-.308v-.22L4.379,627.777c-.088-1.758.132-2.988,1.933-3.12l13.05-1.011a6.24,6.24,0,0,0,3.12-1.1l-4.042-.879,9.1.439v-.527l-6.2-.747,1.362-.527L6.84,617.319l.088-.527c8.612.176,16.653,3.471,25.221,4.394l-4.965-2.329Zm34.185.308.088.835,28.868-3.691-.088-.571Zm84.936-11.029.132,1.318,9.843-1.582v-.439Z" transform="translate(-2.263 -323.581)"/>
      <path id="Caminho_16529" data-name="Caminho 16529" d="M751.771,204.6l-.4-3.339,1.67,1.538v-3.032l-1.626.615V175.074l-10.589,2.2.132.659,8.92-1.494.088.439-17.708,3.559.088.4,12.259,2.417c-5.888.264-11.38-3.032-17.312-1.889l-.176.791,6.02,2.109-.088.352c-1.626-.4-3.208-.879-4.833-1.186a6.271,6.271,0,0,0-1.977.4c-.176-2.5-3.032-1.626-4.13-1.494-6.02.791-5.976,4.789-3.735,9.623l-.7-.176-.967-1.494-.571,13.446h-.967l1.274-18.982c-1.977-.176-2.461.879-2.417,2.241.088,3.515.22,7.03.352,10.546.044.659.088,1.274.132,1.977-1.582.22-1.8-.439-1.758-1.714.088-3.427-.088-6.855-.088-10.326,0-1.538-.747-1.845-2.109-1.582L692.672,189.4a37.164,37.164,0,0,0-3.867.4c-2.5.7-4.965,1.67-7.206,2.461l-1.318-2.5c-4.526,1.494-3.647,1.274-3.427,4.746a43.437,43.437,0,0,0,1.23,6.459c-.7.308-1.538.571-1.538.7a33.66,33.66,0,0,0,.835,5.449c.923,3.383,2.065,6.723,3.164,10.106l-.659.22-2.944-7.558-.571,1.845h-.308V187.465c-.088.088.044-.132.132-.088,1.845.835,3.339-.483,5.009-.835,10.458-2.109,20.959-4.042,31.417-6.327,13.577-2.944,27.111-6.108,40.688-9.139a16.608,16.608,0,0,1,2.2-.176c-.132,2.461-.308,4.7-.4,6.943-.176,5.536-.264,11.117-.483,16.7a18.1,18.1,0,0,1-.7,4c-.527,1.933.879,1.274,1.889,1.274l-1.582,14.72-.7-.088c.22-1.362.483-2.724.571-4.13a39.537,39.537,0,0,0,0-4.833,6.723,6.723,0,0,0-.659-1.933Zm2.5-29.528h-.22V185.84h.22ZM704.492,185.8l.088.571,7.6-1.538-.22-.879Z" transform="translate(-378.803 -95.719)"/>
      <path id="Caminho_16530" data-name="Caminho 16530" d="M547.368,225.712a27.249,27.249,0,0,1-2.856.923c-3.823.835-4.833,2.021-5.053,6.239a1.055,1.055,0,0,1-.483.879l-.791-5.844h-.879l-.527,6.986h-.264l-.483-3.559h-.264l-.7,8.173c-1.186-4.658.747-9.623-2.065-14.368l20.168-4.218-.088-.483-7.338,1.011v-.22l10.721-2.241v-.308l-7.294.879-.088-.527c4.394-.659,8.788-1.274,13.182-2.021,6.152-1.1,12.3-2.329,18.455-3.471.132-.044.308-.176.4-.132,3.867,1.362,7.118-.923,10.59-1.889a14.978,14.978,0,0,1,1.845-.22c0,3.6.747,7.338-.22,10.458s-.747,5.141-1.362,7.646a10.463,10.463,0,0,1-.659,1.494l-.615-.132-.7-14.017-3.779.791h0a10.183,10.183,0,0,1,2.065-1.055c1.538-.4,1.845-1.186,1.186-2.856l-6.811,1.67,1.23.791-26.847,5.844v.879a5.459,5.459,0,0,0,2.021.264c4.35-1.055,8.656-2.241,13.05-3.3,1.186-.264,2.812-.923,2.988,1.45,0,.308,1.011.659,1.626.835a83.948,83.948,0,0,1,9.052,2.5l-10.634-1.318v8.261h-.4c-.352-2.285-.615-4.57-1.055-6.811-.7-3.3-3.515-4.746-6.547-3.383-.22.088-.176.791-.4.879a7.91,7.91,0,0,1-2.944.571c-2.153,2.944.264,6.547-1.23,9.93a51.305,51.305,0,0,1-.747-7.294c.088-2.417-.747-2.285-2.285-2.021s-2.812.791-4.262,1.055c-2.636.439-5.317.791-7.953,1.186l6.635-1.845-.132-.439-15.862,2.988.088.527Z" transform="translate(-298.618 -118.367)"/>
      <path id="Caminho_16531" data-name="Caminho 16531" d="M1003.771,54.941l.879,26.232h-.22V15l5.844,313.159-.615.088a16.17,16.17,0,0,1-.308-2.109c-.352-24.65-.615-49.344-1.1-73.995s-1.362-50.223-1.889-75.313c-.308-13.973-.264-27.946-.352-41.919-.044-7.514,0-15.027,0-22.585h-.7v15.555H1005l-1.8-72.808ZM1005,107.01l.132.088V87.764H1005Z" transform="translate(-562.212 -8.321)"/>
      <path id="Caminho_16532" data-name="Caminho 16532" d="M662.8,271.588c2.417-.439,4.789-.967,7.206-1.318q12.391-1.67,24.782-3.252c9.8-1.23,19.641-2.329,29.44-3.471a5.87,5.87,0,0,0,2.549-.439c.659-.439,1.845-1.494,1.845-2.285,0-3.691-.527-7.382-.483-11.073.044-2.592.7-5.185.967-7.777s.352-4.789.615-7.162c.132-1.274.4-2.5.615-3.911.132,2.461.308,4.746.352,7.03a8.544,8.544,0,0,1-.615,1.977c-.176.659-.571,1.626-.264,2.021,1.8,2.5,1.011,5.449,1.8,8.173l-1.846.483c-.132.22-.264.308-.264.439-.044,2.417-.132,4.789-.132,7.206,0,1.538-.439,3.208,1.274,4.35.352.22.308,1.23.264,1.845-.132,2.109-.439,4.218-.439,6.327q.088,37.744.264,75.533c.044,14.061,0,28.122-.439,42.138V342.112l-.747-.088-.527,1.23V264.6a33.866,33.866,0,0,0-3.427,0l-52.157,5.712-10.633,1.23Z" transform="translate(-371.384 -129.355)"/>
      <path id="Caminho_16533" data-name="Caminho 16533" d="M266.708,492.8c-7.206-1.1-14.456-2.2-21.662-3.383-1.889-.308-3.735-1.23-5.624-1.45-2.9-.4-5.844-.264-8.744-.659q-8.568-1.186-17.049-3.076h2.9v-.7L199.7,481.508c1.055-1.889,2.329-1.494,3.955-1.406,3.252.176,6.547-.4,9.8-.615,6.152-.439,12.3-.967,18.455-1.23,2.373-.088,2.285-1.582,2.461-3.12l.176.923,2.065-73.16h.264c0,3.6.088,7.25,0,10.853-.132,6.5-1.362,13.182-.352,19.509,1.23,7.514-.483,14.852.308,22.234l-.308-1.055h-.22c-.22,7.206-.439,14.456-.571,21.662,0,.615.615,1.186,1.055,1.977a2.213,2.213,0,0,1-3.12.615,4.833,4.833,0,0,0-2.592-.264l-20.915,2.373c-.264.044-.483.176-.747.747l3.735.7,51.1,9.667a14.37,14.37,0,0,1,2.373.879Z" transform="translate(-111.769 -225.778)"/>
      <path id="Caminho_16534" data-name="Caminho 16534" d="M625.322,52.483l-16.39,5.536c-5.317,1.8-11.029,2.9-15.95,5.492-9.535,5.053-19.949,7.294-29.923,10.853-8.217,2.944-16.7,5.185-25,7.865-6.811,2.2-13.577,4.57-20.432,6.767a2.643,2.643,0,0,0-2.153,2.768c-.044,10.546-.132,21.047-.044,31.593,0,1.055.835,2.109,1.23,3.076l-1.362-.791c-1.538,8.876-.308,17.576-.615,26.232h-.571v-2.724c0-6.942,0-13.929.088-20.871s.483-14.588.4-21.882c-.044-5.449-.571-10.941-1.011-16.39-.132-1.494.7-1.67,1.714-1.977,6.547-1.933,13.094-3.691,19.553-5.844q36.119-12.062,72.193-24.255L625.146,52Z" transform="translate(-287.724 -29.063)"/>
      <path id="Caminho_16535" data-name="Caminho 16535" d="M265.506,603.464c2.241.22,4.482.4,6.723.7q9.1,1.318,18.191,2.768c1.45.264,2.812,1.055,4.306,1.406s3.6,1.8,5.624.439a1.538,1.538,0,0,1,1.274,0c3.911,1.845,8.041,1.011,12.083,1.1.352,0,.747-.132,1.1-.132l13.533.747a6.676,6.676,0,0,1,1.45.439h.044l-11.336.132c-4.833,0-9.667.132-14.5-.132-6.2-.352-12.347-1.011-18.5-1.538l-2.417-.176c-14.1-.4-28.253-.791-42.358-1.011l2.549-.22c-3.339.308-6.723-1.538-9.974.308a3.273,3.273,0,0,1-1.318.044c-9.139,0-18.235,0-27.375-.483l12.127-.791-14.9-1.186c-1.318-.088-2.285.088-1.889,1.933.22,1.011-.176,2.2.132,3.032-.7-.879-1.406-1.714-2.109-2.636a1.8,1.8,0,0,1-.4-.923c-.044-2.373,0-4.7,0-6.986a.22.22,0,0,1,.088.176c.352,5.009.352,4.921,5.449,5.1,21.267.835,42.578,1.8,63.845,2.549,7.382.264,14.764.044,22.278-.264l-23.684-4.394Z" transform="translate(-110.567 -336.441)"/>
      <path id="Caminho_16536" data-name="Caminho 16536" d="M463.506,323.388l-38.14,4.7c-7.162.923-14.324,1.977-21.531,2.768-6.283.659-12.655.879-18.938,1.582-3.911.439-7.733,1.67-11.644,2.2-12.611,1.626-25.265,3.12-37.876,4.658a37.217,37.217,0,0,1-6.811.4l7.6-1.318v-.22L307.3,341.008v-.571l35.679-4,47.543-5.317,61.692-6.986c3.779-.439,7.558-.571,11.336-.835Z" transform="translate(-172.09 -181.154)"/>
      <path id="Caminho_16537" data-name="Caminho 16537" d="M1094.83,63.226h.088a1.967,1.967,0,0,1,.483-2.988c.439-.352,0-1.758-.044-2.68a7.852,7.852,0,0,0-.176-1.274l-3.823-17.18-.615.132V54.043h-.615l-.659-22.19-1.055-.22-5.536,12.479L1082,33.259l.176-.088,1.538,6.327c.571-1.186.967-1.845,1.23-2.5,1.011-2.856,1.626-5.932,3.032-8.612a9.1,9.1,0,0,0,1.23-4.833c-.176-3.735-1.011-4.614-4.7-5.141h.088l-.791-1.1.307-.439,2.021.923,2.636,1.1V9.4h.659c.176,2.768.352,5.492.571,8.261.044.527,0,1.186.264,1.494a2.812,2.812,0,0,0,1.8.923c.4,0,.879-.791,1.142-1.362a17.27,17.27,0,0,0,.7-2.417c3.383,1.494,6.327,2.9,9.4,4.086a5.316,5.316,0,0,0,2.812-.308,18.709,18.709,0,0,0,2.2-.7h-.044l-1.977,1.889,2.153,1.318-4.482-.22a7.39,7.39,0,0,0-1.845-1.582c-1.933-.747-4-1.274-5.976-1.933-1.054-.352-2.153-.747-2.5.659-.088.4.747,1.318,1.362,1.582,1.406.7,2.944,1.23,4.438,1.8l-.22.571c-1.45-.483-2.944-.923-4.394-1.538s-2.373-.132-3.12,1.318c-1.714,3.427-2.68,6.811-1.45,10.677s1.362,7.118,2.856,10.282c1.1,2.373,1.011,4.833,1.8,7.162s1.67,2.9,4.043,1.318,5.273-3.691,7.865-5.536a5.229,5.229,0,0,1,2.417-1.011c-2.9,2.329-5.712,4.877-8.788,6.986-2.241,1.538-3.208,3.6-4,5.932C1095.973,60.458,1095.4,61.82,1094.83,63.226Z" transform="translate(-606.388 -5.182)"/>
      <path id="Caminho_16538" data-name="Caminho 16538" d="M923.6,319.5l12.786,1.406c-.044-.132-.044-.264-.132-.352s-.264-.088-.439-.264H939.2c-.22,4.965-.967,9.886-.483,14.72,1.8,17.708.308,35.459,1.1,53.167.747,16.653.7,33.35.967,50.048a2.153,2.153,0,0,1-.352,1.406V427.153h-.4v18.1h-.483l-1.274-83.178h.439v10.15h.044V339.844h-.747a24.011,24.011,0,0,0-.176,2.548v2.636h-.571c.264-3.6.615-7.162.791-10.765s.308-6.986.4-10.5c.044-1.845-1.626-1.626-2.68-1.8-3.6-.7-7.206-1.186-10.809-1.758a6.066,6.066,0,0,1-1.318-.571Z" transform="translate(-517.588 -179.024)"/>
      <path id="Caminho_16539" data-name="Caminho 16539" d="M741.613,460.846c-.352-.571-1.011-1.186-1.011-1.758q-.329-14.039-.527-28.165c-.044-3.12,0-6.239,0-9.623,2.812,1.23,1.977,3.427,2.109,5.229s-.22,3.032,2.021,2.5V445.2c0,.4-.264,1.142-.4,1.142-2.417.044-1.538,1.845-1.582,3.032-.088,3.691-.044,7.382-.044,11.117Z" transform="translate(-414.693 -236.093)"/>
      <path id="Caminho_16540" data-name="Caminho 16540" d="M139.264,522.967l-2.2.615v.308c5.141.879,10.238,2.109,15.379,2.549s10.458.088,15.379.088c-4.745.791-10.15-.571-15.379,1.67l2.2,1.1c-3.647-.615-6.986-1.055-10.282-1.758-1.011-.22-1.845-1.1-2.768-1.626a5.007,5.007,0,0,0-1.582-.615l-46.664-7.03L83.9,516.859l.088-.659c9.227,1.362,18.455,2.944,27.682,4.042s18.367,1.626,27.594,2.417Z" transform="translate(-46.852 -289.294)"/>
      <path id="Caminho_16541" data-name="Caminho 16541" d="M783.07,205.558c1.494,1.494,8.3,1.23,11.908-.483l-2.329-1.055v-.22c2.988.527,6.02,1.011,9.008,1.582.352.044.571.659.835,1.011s-.7.7-1.055.7l-14.412.264c-1.055.044-2.812-.571-2.724,1.186a4.34,4.34,0,0,0,2.065,3.032c.967.527,2.944.527,2.461-2.285l.879.439.439,4.877,1.845-5.273.747.22-4.13,14.9h-.264c.264-2.592.571-5.141.791-7.733.132-1.626-.308-2.9-2.856-2.724.352,1.933.747,3.867,1.055,5.756.088.615-.088,1.318,0,1.933.264,1.714.571,3.427.879,5.141.088.571.176,1.1.264,1.67s0,1.362.22,1.45c2.329.923,1.45,2.812,1.406,4.13l-2.373-1.45c-.527-4.262-1.011-9.139-1.714-13.973-.439-2.9-1.538-5.492-4.57-6.723a10.019,10.019,0,0,1-1.186-.747l3.164.176c.659-2.988.088-3.647-2.548-3.6a52.067,52.067,0,0,1-5.273-.132,39.72,39.72,0,0,0,4.086-.527C780.829,206.788,782.586,207.8,783.07,205.558Z" transform="translate(-434.619 -114.163)"/>
      <path id="Caminho_16542" data-name="Caminho 16542" d="M172.005,501.018c-.659.308-1.274.879-1.933.923l-78.74,1.318a18.41,18.41,0,0,1-3.032-.132c9.535-.308,19.158.176,28.561-1.1,8.085-1.1,16.17-1.055,24.255-1.362,10.194-.352,20.388-.088,30.582-.088Z" transform="translate(-49.318 -280.484)"/>
      <path id="Caminho_16543" data-name="Caminho 16543" d="M886.77,99.475V90.116h-.527V115.6h-.308L885.1,39.233h.352v4.921h.22V25.7h.483l1.011,73.775Z" transform="translate(-496.005 -14.32)"/>
      <path id="Caminho_16544" data-name="Caminho 16544" d="M152.076,548.453H154.4v.132l-10.941.571c-4.218.264-8.436.615-12.7.791-2.329.088-1.758,1.8-2.021,3.208-.308-1.23.7-3.12-1.67-3.12a12.831,12.831,0,0,1-4.174-.483,8,8,0,0,0,1.406-.264c.791-.308,1.538-.747,2.373-1.011a8.346,8.346,0,0,1,2.065-.483l18.147-1.406c2.461-.176,5.053-1.011,7.338-.439,3.515.879,6.855-.264,10.194-.044s5.449,1.406,8.173,2.461c-1.45-.22-2.856-.527-4.306-.7s-2.2-1.186-2.9.615c-.088.22-1.23.044-1.845,0a44.213,44.213,0,0,0-4.789-.483c-1.582.044-4.438.308-6.635.483Z" transform="translate(-68.715 -305.861)"/>
      <path id="Caminho_16545" data-name="Caminho 16545" d="M1153.386,111.523l10.238-.659.22.835a8.64,8.64,0,0,1-2.68,1.23c-3.911.439-7.865.7-11.776.967a4.306,4.306,0,0,1-2.241-.483c-.483-.22-.923-.615-1.406-.571-3.164.132-6.371.4-9.711.571l-.659,1.8-.571-.132.439-2.768c3.339-.264,6.327-.264,9.227-.791s4.789-.879,6.986-2.461,4.042-.967,6.02-1.67c3.779-1.274,7.558-2.636,11.249-4.13s6.679-3.032,10.194-4.262a29.565,29.565,0,0,1-4.306,2.724c-5.229,2.2-10.5,4.262-15.774,6.327-1.274.483-2.68.7-3.955,1.274C1154.4,109.546,1154.134,110.38,1153.386,111.523Z" transform="translate(-635.987 -55.412)"/>
      <path id="Caminho_16546" data-name="Caminho 16546" d="M1170,625.42c-4.438-1.538-8.92-2.988-13.314-4.658-7.47-2.856-14.676-6.459-22.322-8.524-4.658-1.274-8.744-3.339-13.006-5.273-.571-.264-.923-1.011-1.362-1.538l.527-.527,49.7,19.9Z" transform="translate(-627.69 -339.02)"/>
      <path id="Caminho_16547" data-name="Caminho 16547" d="M176.927,621.544c.747.044,1.67-.132,2.2.22,2.285,1.582,4.438,3.339,6.679,5.009l2.109,1.494.352-1.67c.044.088.176.176.176.264.308,2.241,1.67,2.856,3.779,3.032,9.974.7,19.949,1.538,29.879,2.329.22,0,.4.088.571.659-2.109-.22-4.262-.483-6.371-.615-6.986-.439-13.973-.835-20.959-1.142-2.065-.088-4.57.835-6.2,0-2.988-1.494-6.108.044-8.876-1.406l2.68-.22.088-.352-6.635-2.856.176-.483,9.579,3.735.176-.308-9.491-7.733Z" transform="translate(-98.707 -348.326)"/>
      <path id="Caminho_16548" data-name="Caminho 16548" d="M1215.514,662.759,1170.3,636.527l.264-.527,2.856,1.582c3.032,1.758,5.888,4.306,9.139,5.1,5.009,1.274,8.876,4.262,13.094,6.723,6.854,4,13.446,8.393,20.125,12.655Z" transform="translate(-655.889 -356.454)"/>
      <path id="Caminho_16549" data-name="Caminho 16549" d="M152.8,558.173l42.27-3.867-1.933-1.055.088-.352,8.964,1.538.22.527a5.553,5.553,0,0,1-1.494.659c-9.755.659-19.553,1.186-29.308,1.889-5.756.4-11.512,1.055-17.268,1.582h-1.45Z" transform="translate(-85.477 -309.869)"/>
      <path id="Caminho_16550" data-name="Caminho 16550" d="M1145.377,106.674l3.911.352.088-.571-1.45-.571c3.779,0,7.47-1.933,11.556-.747,1.933-1.845,5.009-2.241,7.865-2.944.352-.088.923.791,1.89,1.714l-4.614.879c-.747,1.933-2.548,2.9-5.448,2.988-1.977.044-3.911.4-5.844.483a17.8,17.8,0,0,1-2.109-.4c-1.8-.088-3.559-.044-5.361-.044a5.382,5.382,0,0,1-2.461-.264l1.889-1.626Z" transform="translate(-640.809 -57.198)"/>
      <path id="Caminho_16551" data-name="Caminho 16551" d="M430.7,468.854l-1.1.132,1.538-54.485h.7Z" transform="translate(-240.651 -232.281)"/>
      <path id="Caminho_16552" data-name="Caminho 16552" d="M895.62,156.994v3.647h.264V138.1h.439l.4,57.913a19.351,19.351,0,0,1-1.011-4.394c-.176-10.9-.22-21.794-.308-32.691v-1.933Z" transform="translate(-501.779 -77.331)"/>
      <path id="Caminho_16553" data-name="Caminho 16553" d="M868.982,263.767l.835-6.767.615,2.065.747-1.538c-.044,3.339,1.055,6.591-.615,9.886-.791,1.538-.4,3.691-.615,5.58s-.527,3.252-.835,4.833c-.044.176-.439.308-1.011.747l-.7-17.137.615-.22Z" transform="translate(-486.083 -143.987)"/>
      <path id="Caminho_16554" data-name="Caminho 16554" d="M1086.9,675.323,1096.083,628l.879.176-8.92,47.411Z" transform="translate(-609.135 -351.97)"/>
      <path id="Caminho_16555" data-name="Caminho 16555" d="M38.315,576.3c3.427,5.756,3.164,12.3,3.647,18.718.044.527-.835,1.142-1.494,1.933C38.534,591.767,37.26,577.091,38.315,576.3Z" transform="translate(-21.083 -322.987)"/>
      <path id="Caminho_16556" data-name="Caminho 16556" d="M893.659,16.376c.308,8.393.527,16.785.879,25.221.308,7.25.7,14.456,1.011,21.706a6.512,6.512,0,0,1-.483,1.977l-.747-.132L893,16.2Z" transform="translate(-500.434 -8.994)"/>
      <path id="Caminho_16557" data-name="Caminho 16557" d="M1167,584.8l46.576,2.988v.659c-15.6.132-31.066-2.021-46.576-2.9Z" transform="translate(-654.039 -327.752)"/>
      <path id="Caminho_16558" data-name="Caminho 16558" d="M410.824,440.05l-.4,2.988h-.439c-.176-2.812-.439-5.624-.4-8.436,0-.527,1.142-1.055,2.021-1.8v30.67h-.308L411,459.34h-.22l-.22,4.042h.132c0-4.262.044-8.48-.044-12.743a22.351,22.351,0,0,0-.527-2.9c-.132-.967-.264-1.23-.088-1.714C411.132,443.346,411.132,443.389,410.824,440.05Z" transform="translate(-229.433 -242.54)"/>
      <path id="Caminho_16559" data-name="Caminho 16559" d="M121.481,635.8l-46.005-2.109-.176-.439c.4-.264.835-.747,1.23-.747,2.021.044,4,.22,6.02.352L119.679,635c.615.044,1.23.176,1.845.264Z" transform="translate(-42.03 -354.492)"/>
      <path id="Caminho_16560" data-name="Caminho 16560" d="M148.559,604.032c-3.735-1.362-7.47-2.812-11.249-4.13-1.23-.439-2.636-.352-3.911-.7a1.73,1.73,0,0,1-1.011-1.406q.857-4.284,2.109-8.436c.571-1.933,1.406-3.779,2.153-5.756,1.23,1.67,1.67,2.988.527,5.1s-1.933,5.4-2.68,8.129c-.132.439.571,1.45,1.1,1.626,3.032,1.186,6.152,2.241,9.227,3.339l4.042,1.494Z" transform="translate(-74.03 -327.079)"/>
      <path id="Caminho_16561" data-name="Caminho 16561" d="M871.1,653.815a7.962,7.962,0,0,1,1.8-.967c6.635-1.362,13.314-2.68,19.993-3.955,2.285-.439,4.614-.483,6.9-.835s5.668-1.011,8.48-1.714a18.682,18.682,0,0,0,3.6-1.845v2.153c-4.877.791-9.974,1.582-15.027,2.5-5.8,1.1-11.6,2.329-17.4,3.515l-7.294,1.45c-.308.044-.659-.264-.967-.439Z" transform="translate(-488.157 -361.22)"/>
      <path id="Caminho_16562" data-name="Caminho 16562" d="M866.306,311.035c-3.867-.308-7.69-.527-11.556-.879-3.164-.308-6.327-.747-9.491-1.142-1.8-.22-3.647-.439-5.449-.7l-16.785-2.68a7.554,7.554,0,0,1-1.626-.659l.176-.571,4.482.527,32.472,4.7c1.714.264,3.471.264,5.185.527a15.276,15.276,0,0,1,2.592.923Z" transform="translate(-460.295 -170.559)"/>
      <path id="Caminho_16563" data-name="Caminho 16563" d="M732.312,252.909,733.323,245l.439.088-1.23,20.081-.4.088-.7-4.833-1.933.791c.308-2.812.659-5.317.791-7.865a6.813,6.813,0,0,0-.483-3.032c-.527-1.23-.4-1.889,1.1-2.241l.483,4.789Z" transform="translate(-408.776 -137.259)"/>
      <path id="Caminho_16564" data-name="Caminho 16564" d="M414.02,170.4a41.073,41.073,0,0,1-3.6,2.549c-2.812,1.582-2.812,1.538-2.944,5.1l-.308-2.944h-.615l-.835,39.15c-2.021-13.929,1.933-27.682-.615-41.3l8.92-2.5Z" transform="translate(-226.917 -95.439)"/>
      <path id="Caminho_16565" data-name="Caminho 16565" d="M1155.244,559.214,1200.9,557.5v.791l-45.7,1.8Z" transform="translate(-647.424 -312.447)"/>
      <path id="Caminho_16566" data-name="Caminho 16566" d="M1163.4,578l47.147,3.252-.088.923-47.016-3.515Z" transform="translate(-652.021 -323.94)"/>
      <path id="Caminho_16567" data-name="Caminho 16567" d="M41.318,510.482,16.8,507.626c.923-.615,1.362-1.142,1.845-1.142,5.185-.22,10.414-.352,15.6-.483H36.7v.791H25.852v.791l15.6,2.5Z" transform="translate(-9.235 -283.576)"/>
      <path id="Caminho_16568" data-name="Caminho 16568" d="M880.947,247.476l1.23,4.614.352.132,1.186-7.821h.4c-.176,1.758-.308,3.515-.483,5.317-.088.659-.571,1.626-.308,1.889,1.582,1.494-.22,3.252.483,4.877.22.527-.967,1.714-1.8,2.417v3.339h-.4c-.22-3.076-.439-6.152-.7-9.227-.176-1.845-.439-3.647-.7-5.492Z" transform="translate(-493.258 -136.923)"/>
      <path id="Caminho_16569" data-name="Caminho 16569" d="M66.525,593l-.835,5.756.4.176,1.67-3.823.439.088c-.483,1.933-.835,3.911-1.406,5.8A34.977,34.977,0,0,1,64.9,605.83a3.867,3.867,0,0,1-1.845,1.626C62.7,602.14,64.987,597.658,66.525,593Z" transform="translate(-35.145 -332.349)"/>
      <path id="Caminho_16570" data-name="Caminho 16570" d="M712.338,421l-.7,32.779H710.8L711.5,421Z" transform="translate(-398.292 -235.925)"/>
      <path id="Caminho_16571" data-name="Caminho 16571" d="M425.444,158.006c4.658-1.538,9.271-3.12,13.973-4.57,5.888-1.8,11.776-3.471,17.664-5.185.264-.088.571-.044.923.352l-7.162,2.241c-5.844,1.889-11.6,4-17.532,5.624-2.549.7-5.053,2.2-7.909,1.538Z" transform="translate(-238.297 -83.001)"/>
      <path id="Caminho_16572" data-name="Caminho 16572" d="M70.278,625.526a30.316,30.316,0,0,1-4.482-.264c-5.4-1.142-10.809-2.373-16.17-3.647-.4-.088-.7-.483-1.626-1.23,3.12.264,2.944-1.45,3.076-3.076a15.731,15.731,0,0,1,1.186-5.009c.132,2.417.176,4.877.439,7.294A3.015,3.015,0,0,0,54.02,621.7c5.361,1.362,10.765,2.592,16.17,3.823Z" transform="translate(-26.726 -343.168)"/>
      <path id="Caminho_16573" data-name="Caminho 16573" d="M111.636,592.714,109,573.6c4.614,5.932,2.812,12.611,3.427,19.026Z" transform="translate(-60.923 -321.473)"/>
      <path id="Caminho_16574" data-name="Caminho 16574" d="M547.159,671.906l.132-1.8v7.47c0,.176-.264.308-.791.923V632.8h.4v39.194Z" transform="translate(-306.186 -354.661)"/>
      <path id="Caminho_16575" data-name="Caminho 16575" d="M1251.225,79.955c-2.021,1.582-4.174.747-4.614-1.626a13.43,13.43,0,0,1-.615-3.164,3.383,3.383,0,0,1,1.142-2.285c1.011-.791,1.626-.044,1.977,1.055C1249.731,75.912,1250.478,77.845,1251.225,79.955Z" transform="translate(-698.322 -40.584)"/>
      <ellipse id="Elipse_25" data-name="Elipse 25" cx="25.968" cy="0.483" rx="25.968" ry="0.483" transform="translate(511.16 242.328)"/>
      <path id="Caminho_16576" data-name="Caminho 16576" d="M390.788,420.324h10.853a16.081,16.081,0,0,0,3.471-.308c2.2-.527,2.5-.264,2.153,2.417L390.7,421.378Z" transform="translate(-218.844 -235.249)"/>
      <path id="Caminho_16577" data-name="Caminho 16577" d="M1155.3,530.362l1.274-15.862c.615,2.329,1.406,4.174,1.494,6.02a57.9,57.9,0,0,1-.483,8.7c-.088.615-.967,1.142-1.494,1.67Z" transform="translate(-647.48 -288.341)"/>
      <path id="Caminho_16578" data-name="Caminho 16578" d="M689.47,415.9l-1.1,33.306H687.8l.659-33.263Z" transform="translate(-385.399 -233.066)"/>
      <path id="Caminho_16579" data-name="Caminho 16579" d="M728.479,604.289l-29.879-4.13.088-.659,29.879,3.911Z" transform="translate(-391.453 -335.993)"/>
      <path id="Caminho_16580" data-name="Caminho 16580" d="M161.327,570.5l2.988.132v.439H152.1v-.7L184.44,568v.791l-23.156,1.362Z" transform="translate(-85.085 -318.334)"/>
      <path id="Caminho_16581" data-name="Caminho 16581" d="M775.822,668.888,747.7,663.7l.132-.7,28.122,5.009Z" transform="translate(-418.979 -371.591)"/>
      <path id="Caminho_16582" data-name="Caminho 16582" d="M1205.614,47.032c1.011,2.461,2.065,4.877,2.988,7.338a1.23,1.23,0,0,1-.439,1.055c-1.142.923-3.559,0-3.779-1.45a30.722,30.722,0,0,1-.483-4.746,7.225,7.225,0,0,1,.879-2.329Z" transform="translate(-674.725 -26.204)"/>
      <path id="Caminho_16583" data-name="Caminho 16583" d="M528.3,696.446V665.6h.483v30.8Z" transform="translate(-295.983 -373.048)"/>
      <path id="Caminho_16584" data-name="Caminho 16584" d="M1233.324,380.9l-5.141,2.68.088.4h4.306v.483l-8.217,1.758v-.22l3.163-1.23-.132-.747a23.558,23.558,0,0,0-2.593.4c-.967.264-1.889.659-2.9,1.011.176-2.153,8.656-5.273,11.512-4.482Z" transform="translate(-684.816 -213.397)"/>
      <path id="Caminho_16585" data-name="Caminho 16585" d="M1242.471,532.509l-20.256,3.3-.615-.7c3.867.132,3.515-2.153,2.592-4.7l.791.132a5.86,5.86,0,0,1,.264.571c.352.967.483,2.636,1.011,2.768a10.218,10.218,0,0,0,4.306-.132c3.911-.7,7.821-1.538,11.732-2.329Z" transform="translate(-684.648 -297.255)"/>
      <path id="Caminho_16586" data-name="Caminho 16586" d="M842.258,677.2v13.094l-.22-2.593h-.571c0,2.373.044,4.789,0,7.162a31.684,31.684,0,0,1-.967,7.294l1.055-24.958Z" transform="translate(-471.002 -379.551)"/>
      <path id="Caminho_16587" data-name="Caminho 16587" d="M816.2,646.646V621.6h.835v25.046Z" transform="translate(-457.38 -348.382)"/>
      <path id="Caminho_16588" data-name="Caminho 16588" d="M1216.783,429.544l.967,19.729-.439.088-.615-1.318-.176,1.8h-.22V429.5Z" transform="translate(-681.676 -240.69)"/>
      <path id="Caminho_16589" data-name="Caminho 16589" d="M1255.1,38.214l1.186-1.714.747,1.011c1.055-.352,2.2-1.1,2.593-.835s2.548,1.362,1.538,3.252c-.264.483.352,1.45.615,2.417-1.626,0-2.109-3.779-4.042-1.318Z" transform="translate(-703.428 -20.374)"/>
      <path id="Caminho_16590" data-name="Caminho 16590" d="M853.09,15.235l-21.97,7.382-.22-.659L852.782,14.4Z" transform="translate(-465.621 -7.985)"/>
      <path id="Caminho_16591" data-name="Caminho 16591" d="M717.182,280.433c-3.12-1.889-.923-5.317-1.714-7.953l1.186,1.23.527-3.911h.352l.527,10.37Z" transform="translate(-400.895 -151.162)"/>
      <path id="Caminho_16592" data-name="Caminho 16592" d="M694.259,439.244q-.351-12.787-.659-25.617c0-.088.352-.22.923-.527v26.188Z" transform="translate(-388.65 -231.496)"/>
      <path id="Caminho_16593" data-name="Caminho 16593" d="M1230.938,254.876c-4.042-2.373-8.085-4.7-12.083-7.118A2.679,2.679,0,0,1,1217.8,246a23.431,23.431,0,0,0,2.417,1.977c.352.22,1.011.044,1.538.088s.923-.044,1.143.176c2.68,2.2,5.317,4.482,8,6.723Z" transform="translate(-682.517 -137.82)"/>
      <path id="Caminho_16594" data-name="Caminho 16594" d="M700.8,455.743V440.1C702.382,443.439,702.03,454.908,700.8,455.743Z" transform="translate(-392.686 -246.633)"/>
      <path id="Caminho_16595" data-name="Caminho 16595" d="M285.244,363.8l7.294-.7v.308l-6.327.527-.571,12.743H285.2Z" transform="translate(-159.701 -203.466)"/>
      <path id="Caminho_16596" data-name="Caminho 16596" d="M298.431,400.2v12.347h-.571c0-3.032.088-6.02-.044-9.052-.044-1.23-.615-2.417-.791-3.691a8.967,8.967,0,0,1,.176-2.768,12.343,12.343,0,0,0,1.714.615c.088.044.351-.483,1.011-.747l-.571,7.733h-.176V400.2Z" transform="translate(-166.296 -222.415)"/>
      <path id="Caminho_16597" data-name="Caminho 16597" d="M1060.7,255.888a12.406,12.406,0,0,1,3.427,1.011,41.614,41.614,0,0,1,6.371,4.7,17.884,17.884,0,0,1-9.711-5.8Z" transform="translate(-594.447 -143.314)"/>
      <path id="Caminho_16598" data-name="Caminho 16598" d="M1064.1,21.944c1.977.879,3.911,1.933,5.976,2.636a21.791,21.791,0,0,0,4.526.879h-.088l1.845,3.076-.615.7L1064.188,21.9Z" transform="translate(-596.353 -12.189)"/>
      <path id="Caminho_16599" data-name="Caminho 16599" d="M1251.8,99.009l-11.2-5.8c.22-1.055.527-1.8,1.845-.967l9.623,6.283Z" transform="translate(-695.299 -51.422)"/>
      <path id="Caminho_16600" data-name="Caminho 16600" d="M397.1,536.738c2.944-1.362,12.391-1.274,13.226,0Z" transform="translate(-222.432 -300.254)"/>
      <path id="Caminho_16601" data-name="Caminho 16601" d="M1223.591,450.8c0,4.438.4,8.92-.044,13.314h-.747V450.8Z" transform="translate(-685.32 -252.631)"/>
      <path id="Caminho_16602" data-name="Caminho 16602" d="M1132.7,107.44c3.208-.439,5.8-3.383,9.359-2.329C1139.467,107.747,1135.952,107.132,1132.7,107.44Z" transform="translate(-634.81 -58.71)"/>
      <path id="Caminho_16603" data-name="Caminho 16603" d="M106.562,612.468c-.483-.308-1.274-.527-1.45-.967-1.1-3.471-2.065-6.942-2.812-10.5l4.833,10.853Z" transform="translate(-57.167 -336.833)"/>
      <path id="Caminho_16604" data-name="Caminho 16604" d="M1034.923,28.194c-3.032-1.714-6.108-3.427-9.1-5.273-.4-.264-.4-1.186-.527-1.758l.571-.264,9.271,6.943Z" transform="translate(-574.602 -11.629)"/>
      <path id="Caminho_16605" data-name="Caminho 16605" d="M1233.2,69.793l4.746-8.393.923.176c0,.747.308,1.714-.044,2.153-1.67,2.153-3.559,4.174-5.361,6.239Z" transform="translate(-691.151 -34.333)"/>
      <path id="Caminho_16606" data-name="Caminho 16606" d="M859.265,207.2c.264.483.835,1.055.747,1.494a63.356,63.356,0,0,1-2.812,9.447l1.274-10.59Z" transform="translate(-480.364 -116.069)"/>
      <path id="Caminho_16607" data-name="Caminho 16607" d="M1197.17,431.888c-.439,5.888-.527,11.776-.615,17.664l-1.054-.088,1.054-17.664Z" transform="translate(-670.016 -241.98)"/>
      <path id="Caminho_16608" data-name="Caminho 16608" d="M1065.885,188.364l-6.635,7.821-1.45-1.274,7.865-6.811Z" transform="translate(-592.821 -105.361)"/>
      <path id="Caminho_16609" data-name="Caminho 16609" d="M1234.6,506.673l17-2.373.088.835-17.049,1.977Z" transform="translate(-691.935 -282.623)"/>
      <path id="Caminho_16610" data-name="Caminho 16610" d="M122,594.193l.747-11.2.4-.088.791,5.8-1.45,5.58Z" transform="translate(-68.21 -326.687)"/>
      <path id="Caminho_16611" data-name="Caminho 16611" d="M1141.844,25.415c1.45-1.67,2.768-3.471,4.35-5.009.44-.4,1.714.088,2.593.22l.176,1.011-7.162,3.735Z" transform="translate(-639.912 -11.266)"/>
      <path id="Caminho_16612" data-name="Caminho 16612" d="M66.258,571.274l-1.758-.22,1.274-9.755c.923,5.976.923,5.976,1.845,5.668-.176.835-.308,1.582-.527,2.285S66.521,570.571,66.258,571.274Z" transform="translate(-35.976 -314.578)"/>
      <path id="Caminho_16613" data-name="Caminho 16613" d="M409.177,404.423H395.6V403.5l13.621.615Z" transform="translate(-221.591 -226.115)"/>
      <path id="Caminho_16614" data-name="Caminho 16614" d="M1059.267,16.294l-3.867-1.582,11.688-2.812.176.571-8.788,2.68.791,1.23Z" transform="translate(-591.476 -6.583)"/>
      <path id="Caminho_16615" data-name="Caminho 16615" d="M146.067,587.9l-1.714,9.008-2.153-.835,3.691-8.173Z" transform="translate(-79.535 -329.49)"/>
      <path id="Caminho_16616" data-name="Caminho 16616" d="M1224.264,407.5v14.764H1224V407.5Z" transform="translate(-685.993 -228.357)"/>
      <path id="Caminho_16617" data-name="Caminho 16617" d="M31.6,608.3l4.438,9.447-.527.483c-.527-.4-1.362-.7-1.582-1.274-1.011-2.812-1.845-5.668-2.724-8.524Z" transform="translate(-17.308 -340.926)"/>
      <path id="Caminho_16618" data-name="Caminho 16618" d="M827.616,698c-1.45-3.383-.352-6.239-.659-9.4C828.583,690.094,828.89,694.927,827.616,698Z" transform="translate(-463.347 -385.942)"/>
      <path id="Caminho_16619" data-name="Caminho 16619" d="M541.12,232c-8.085,2.944-11.161,3.339-11.82,1.538Z" transform="translate(-296.543 -129.972)"/>
      <path id="Caminho_16620" data-name="Caminho 16620" d="M848,665.588V665.5l-17.971,3.427-.132-.967Z" transform="translate(-465.06 -372.992)"/>
      <path id="Caminho_16621" data-name="Caminho 16621" d="M405.6,285.158V274.7h.352l.747,10.458Z" transform="translate(-227.197 -153.909)"/>
      <path id="Caminho_16622" data-name="Caminho 16622" d="M1208.558,511.9c.308.483,1.011,1.055.923,1.406-.747,2.9-1.67,5.756-2.68,8.656l.835-9.842Z" transform="translate(-676.351 -286.884)"/>
      <path id="Caminho_16623" data-name="Caminho 16623" d="M534.179,297.4a14.457,14.457,0,0,0,0,1.758c.088.791.044,1.933.483,2.241,2.241,1.494.659,3.339.527,5.053-2.109-2.68-1.055-6.02-1.889-8.964Z" transform="translate(-298.786 -166.635)"/>
      <path id="Caminho_16624" data-name="Caminho 16624" d="M647.471,280.044V289.8H646.9V280Z" transform="translate(-362.47 -156.88)"/>
      <path id="Caminho_16625" data-name="Caminho 16625" d="M746.827,273.2c-.176-3.12-.439-6.239-.527-9.359,0-.527.439-1.055.659-1.538l.879.264L747,273.2Z" transform="translate(-418.194 -146.958)"/>
      <path id="Caminho_16626" data-name="Caminho 16626" d="M840.039,220.42l-2.768,9.843-.571-.132c1.45-3.164.264-6.943,2.373-9.93Z" transform="translate(-468.872 -123.357)"/>
      <path id="Caminho_16627" data-name="Caminho 16627" d="M1189.436,27.775c-1.845,1.274-2.592,3.911-5.536,3.208C1185.174,27.687,1186.492,26.9,1189.436,27.775Z" transform="translate(-663.513 -15.296)"/>
      <path id="Caminho_16628" data-name="Caminho 16628" d="M16.593,674.645c-3.867.044-7.689.176-11.293-.879l.132-.967Z" transform="translate(-2.788 -377.085)"/>
      <path id="Caminho_16629" data-name="Caminho 16629" d="M406.126,519.439H390V519h16.126Z" transform="translate(-218.452 -290.864)"/>
      <path id="Caminho_16630" data-name="Caminho 16630" d="M1243.108,655.8l12.918,5.361-.308.7-12.918-5.492Z" transform="translate(-696.532 -367.554)"/>
      <path id="Caminho_16631" data-name="Caminho 16631" d="M79.312,595.564c-.088,1.494-.176,3.032-.308,4.526s-.571,1.582-2.5.879l2.2-5.668Z" transform="translate(-42.703 -333.638)"/>
      <path id="Caminho_16632" data-name="Caminho 16632" d="M1178,365.3c1.274,3.339,2.592,6.767,2.856,10.414l-.967.22Z" transform="translate(-660.205 -204.7)"/>
      <path id="Caminho_16633" data-name="Caminho 16633" d="M833.091,689.423l-.791-9.535.967-.088.7,9.579Z" transform="translate(-466.405 -381.009)"/>
      <path id="Caminho_16634" data-name="Caminho 16634" d="M1196.6,312.5l8.7,3.252-.352.835C1201.7,316.411,1199.324,313.994,1196.6,312.5Z" transform="translate(-670.633 -175.1)"/>
      <path id="Caminho_16635" data-name="Caminho 16635" d="M738.393,689,730,686.408V686.1l7.953.967Z" transform="translate(-409.056 -384.541)"/>
      <path id="Caminho_16636" data-name="Caminho 16636" d="M588.864,709.4l10.062,3.252-.22.7-10.106-3.12Z" transform="translate(-329.787 -397.603)"/>
      <path id="Caminho_16637" data-name="Caminho 16637" d="M1089.889,104.036,1088,92.7C1089.845,96.171,1091.076,102.279,1089.889,104.036Z" transform="translate(-609.751 -51.88)"/>
      <path id="Caminho_16638" data-name="Caminho 16638" d="M234.7,566.694l13.138-1.494v1.055l-13.006.483Z" transform="translate(-131.39 -316.764)"/>
      <path id="Caminho_16639" data-name="Caminho 16639" d="M1247.6,265.864a2.7,2.7,0,0,1,3.691,1.055,12.248,12.248,0,0,0,2.724,2.417l-5.185-1.582-1.142-1.977Z" transform="translate(-699.223 -148.764)"/>
      <path id="Caminho_16640" data-name="Caminho 16640" d="M896.4,280.5c2.592,2.812,1.142,6.2,1.142,9.4Z" transform="translate(-502.34 -157.161)"/>
      <path id="Caminho_16641" data-name="Caminho 16641" d="M1251.8,519.627l8.92-3.427.22.571C1258.479,519.276,1254.964,518.968,1251.8,519.627Z" transform="translate(-701.578 -289.294)"/>
      <path id="Caminho_16642" data-name="Caminho 16642" d="M1185.695,299.291c-1.23.132-2.5.791-3.383-.879a2,2,0,0,0-1.933-.615c-2.285,1.274-1.89-.527-1.845-2.2l7.074,3.779Z" transform="translate(-660.474 -165.626)"/>
      <path id="Caminho_16643" data-name="Caminho 16643" d="M1242.974,51.435l-9.711,4.086-.264-.615,9.667-4.306Z" transform="translate(-691.038 -28.279)"/>
      <path id="Caminho_16644" data-name="Caminho 16644" d="M833.672,249.7a30.455,30.455,0,0,1,.615,3.559,2.549,2.549,0,0,1-.747,1.626c-.176.176-1.186-.044-1.274-.308a3.384,3.384,0,0,1-.176-2.065A26.4,26.4,0,0,1,833.672,249.7Z" transform="translate(-466.239 -139.894)"/>
      <path id="Caminho_16645" data-name="Caminho 16645" d="M1203.2,122.036l6.9-2.636.571.483c-.352.439-.571,1.23-1.011,1.318-2.109.527-4.218.923-6.371,1.318Z" transform="translate(-674.332 -66.848)"/>
      <path id="Caminho_16646" data-name="Caminho 16646" d="M1250.45,397.633l-7.25-4.262.352-.571c3.208.044,4.7,3.164,7.294,4.306Z" transform="translate(-696.757 -220.116)"/>
      <path id="Caminho_16647" data-name="Caminho 16647" d="M1065.359,71.3l-2.724,8.173-.835-.308C1061.976,76.221,1063.865,73.849,1065.359,71.3Z" transform="translate(-595.064 -39.883)"/>
      <path id="Caminho_16648" data-name="Caminho 16648" d="M1038.026,8c-2.065-1.055-4.13-2.065-6.108-3.12A16.7,16.7,0,0,1,1027.7,1.8l10.589,5.756Z" transform="translate(-575.947 -0.921)"/>
      <path id="Caminho_16649" data-name="Caminho 16649" d="M1145.3,141.256l7.514-5.756C1151.012,138.532,1147.277,141.608,1145.3,141.256Z" transform="translate(-641.874 -75.874)"/>
      <path id="Caminho_16650" data-name="Caminho 16650" d="M701.87,236.188l-1.318,10.546H700.2l.791-10.633Z" transform="translate(-392.35 -132.27)"/>
      <path id="Caminho_16651" data-name="Caminho 16651" d="M640.458,225.2l-10.326,2.285-.132-.615c3.471-.615,6.679-2.636,10.458-1.626Z" transform="translate(-352.996 -126.029)"/>
      <path id="Caminho_16652" data-name="Caminho 16652" d="M801.4,286.9v-8.7C801.355,281.144,803.6,283.956,801.4,286.9Z" transform="translate(-449.082 -155.871)"/>
      <path id="Caminho_16653" data-name="Caminho 16653" d="M44.359,667.147,35,664.6l.352-1.1,8.964,3.647Z" transform="translate(-19.438 -371.871)"/>
      <path id="Caminho_16654" data-name="Caminho 16654" d="M501,311.259c-.22-.22-.967-.571-.967-.923-.088-2.812-.044-5.624-.044-8.436H501Z" transform="translate(-280.104 -169.158)"/>
      <path id="Caminho_16655" data-name="Caminho 16655" d="M695.308,480.7v8.48H695V480.7Z" transform="translate(-389.435 -269.393)"/>
      <path id="Caminho_16656" data-name="Caminho 16656" d="M529.008,634.3v9.843H528.7V634.3Z" transform="translate(-296.207 -355.501)"/>
      <path id="Caminho_16657" data-name="Caminho 16657" d="M962.123,618.4l-.791,9.315H961.2V618.4Z" transform="translate(-538.667 -346.588)"/>
      <path id="Caminho_16658" data-name="Caminho 16658" d="M1155.02,65.3c-.571,2.592-.483,5.4-2.417,7.47l-.7-.264Z" transform="translate(-645.574 -36.519)"/>
      <path id="Caminho_16659" data-name="Caminho 16659" d="M1132.4,180.767l1.274-6.767h.22l.483,6.064Z" transform="translate(-634.642 -97.457)"/>
      <path id="Caminho_16660" data-name="Caminho 16660" d="M249.032,545.8l10.59,1.977-.132.7L248.9,546.2Z" transform="translate(-139.351 -305.888)"/>
      <path id="Caminho_16661" data-name="Caminho 16661" d="M602.066,279.5l2.2,4.482-.879.4C601.055,283.542,602.154,281.258,602.066,279.5Z" transform="translate(-337.233 -156.6)"/>
      <path id="Caminho_16662" data-name="Caminho 16662" d="M630.684,286.424c-.7-2.153-1.318-3.779-1.8-5.449-.088-.308.264-.7.439-1.1s.967.527,1.011.879C630.552,282.469,630.6,284.227,630.684,286.424Z" transform="translate(-352.362 -156.757)"/>
      <path id="Caminho_16663" data-name="Caminho 16663" d="M120.216,618.9l-2.768,5.1C116.613,621.229,118.59,620.13,120.216,618.9Z" transform="translate(-65.548 -346.868)"/>
      <path id="Caminho_16664" data-name="Caminho 16664" d="M1173.321,344.515l-2.021-9.183.615-.132,1.889,9.227Z" transform="translate(-656.449 -187.826)"/>
      <path id="Caminho_16665" data-name="Caminho 16665" d="M168.462,613.427l-5.185-4.262-1.977-1.626.352-.439c2.153,1.67,4.306,3.3,6.415,5.009.308.264.264.923.352,1.406Z" transform="translate(-90.242 -340.253)"/>
      <path id="Caminho_16666" data-name="Caminho 16666" d="M1038.5,53.88c.352-2.241,2.065-3.867,3.515-5.58l-2.856,5.932Z" transform="translate(-582.002 -26.989)"/>
      <path id="Caminho_16667" data-name="Caminho 16667" d="M81.249,579.92l-1.977,6.459-.571-.132,1.714-6.547Z" transform="translate(-43.936 -324.893)"/>
      <path id="Caminho_16668" data-name="Caminho 16668" d="M1180.833,275.052l-7.646,1.142-.088-1.011,7.734-.483Z" transform="translate(-657.458 -153.909)"/>
      <path id="Caminho_16669" data-name="Caminho 16669" d="M556.8,301.9l1.011,4.7-.967.176-.747-4.746Z" transform="translate(-311.567 -169.158)"/>
      <path id="Caminho_16670" data-name="Caminho 16670" d="M1200.1,235.1l5.58,3.427-.4.615-5.58-3.339Z" transform="translate(-672.37 -131.709)"/>
      <path id="Caminho_16671" data-name="Caminho 16671" d="M1058.159,28.985l-6.459-4.7.352-.483,6.5,4.746Z" transform="translate(-589.401 -13.254)"/>
      <path id="Caminho_16672" data-name="Caminho 16672" d="M14.477,656.871,6.7,654.015l.22-.615,7.777,2.9Z" transform="translate(-3.573 -366.209)"/>
      <path id="Caminho_16673" data-name="Caminho 16673" d="M1247.944,376.783l6.811-3.383.352.791-7.206,2.5Z" transform="translate(-699.391 -209.241)"/>
      <path id="Caminho_16674" data-name="Caminho 16674" d="M1135.483,209.691,1135,203.1h.483Z" transform="translate(-636.099 -113.77)"/>
      <path id="Caminho_16675" data-name="Caminho 16675" d="M1194.8,304.044l6.547,2.329-.483,1.011-6.02-3.383Z" transform="translate(-669.624 -170.335)"/>
      <path id="Caminho_16676" data-name="Caminho 16676" d="M1086.9,295.341l3.3-5.141.439.264-3.076,5.273Z" transform="translate(-609.135 -162.599)"/>
      <path id="Caminho_16677" data-name="Caminho 16677" d="M635.53,268.7l-.264,4.526h-.527l-.439-4.482Z" transform="translate(-355.406 -150.546)"/>
      <path id="Caminho_16678" data-name="Caminho 16678" d="M1056.8,55.7l2.68-4,.747.527-2.856,3.867Z" transform="translate(-592.26 -28.895)"/>
      <path id="Caminho_16679" data-name="Caminho 16679" d="M691.7,491.2v-5.4h.264v5.361Z" transform="translate(-387.585 -272.252)"/>
      <path id="Caminho_16680" data-name="Caminho 16680" d="M79.459,626.2l.264,2.2L75.9,628v-.4Z" transform="translate(-42.367 -350.961)"/>
      <path id="Caminho_16681" data-name="Caminho 16681" d="M764.859,444v5.58h-.088l-.571-5.492Z" transform="translate(-428.229 -248.819)"/>
      <path id="Caminho_16682" data-name="Caminho 16682" d="M1235.5,130.077l7.294-1.977.132.439-7.25,2.065Z" transform="translate(-692.44 -71.725)"/>
      <path id="Caminho_16683" data-name="Caminho 16683" d="M1053.244,250.506l.088-.088-5.932-3.471.527-.747Z" transform="translate(-586.991 -137.932)"/>
      <path id="Caminho_16684" data-name="Caminho 16684" d="M1162.7,45.888,1164.9,40l.527.22-2.2,5.888Z" transform="translate(-651.628 -22.336)"/>
      <path id="Caminho_16685" data-name="Caminho 16685" d="M96.9,593.3c1.1.088,1.977.132,2.856.264.176.044.483.483.439.615s-.4.659-.659.7a2.9,2.9,0,0,1-1.67-.176C97.471,594.486,97.3,593.871,96.9,593.3Z" transform="translate(-54.139 -332.517)"/>
      <path id="Caminho_16686" data-name="Caminho 16686" d="M824.657,243.306a26.19,26.19,0,0,1,.044-3.339c.044-.308.615-.527.967-.835s.527.791.439,1.055S825.272,241.987,824.657,243.306Z" transform="translate(-462.102 -133.939)"/>
      <path id="Caminho_16687" data-name="Caminho 16687" d="M878.836,286.6l1.845,2.592C878.4,289.983,878.265,289.852,878.836,286.6Z" transform="translate(-492.334 -160.58)"/>
      <path id="Caminho_16688" data-name="Caminho 16688" d="M596.5,380.4c.176,30.1,2.021,59.758.483,89.945-5.536-1.011-10.633-2.021-15.73-2.812s-10.018-1.318-14.984-2.021l-13.05-1.845c-1.67-.22-2.5-1.011-2.373-2.9.22-2.636-.044-5.273.132-7.909.132-1.8,1.011-3.6,1.011-5.361.044-6.064-.176-12.127-.264-18.191,0-.659.044-1.318.044-1.977s1.055-2.021-.835-2.109a4.617,4.617,0,0,1-.132-1.23c0-3.647,0-7.338,0-11.424,4.921-.088,9.271,1.933,13.885,2.636s9.227,2.373,12.523,6.371l1.318-1.714c-.088-.22-.132-.4-.22-.439-2.285-1.186-3.032-3.032-2.812-5.536s.044-4.921.264-7.382l.176,2.812h-.176c0-4.438.088-8.876-.044-13.358-.044-2.021.7-2.68,2.636-2.636,4.614.088,9.227.044,13.841-.088l-2.021-.352,2.153-.439v-.4l-26.935.747v.22l9.8,1.23v21.838c-3.339-.923-6.327-1.758-9.315-2.5s-7.25-.22-10.809-1.626-4.086-1.626-4-5.317c.22-7.03.527-14.017.7-21.047.044-1.538.835-1.8,2.065-1.889l15.95-.835c4.57-.22,9.183-.22,13.709-.615S591.662,381.1,596.5,380.4Zm-8.041,9.4v-.659c-11.952.044-23.947-.923-35.9-.044v.7Zm-34.361,59.011h.22c.264-3.647.615-7.294.791-10.9.044-.7-.571-1.494-.879-2.2l-.527.264-1.142,12.874h.527l.527-3.6h.264Zm22.8-2.724v.483c3.559.527,7.118,1.1,10.721,1.538.352.044.791-.4,1.23-.571l-.132-.747Zm17.927-50.267v-.132l-16.521-.7v.879ZM563.1,392.7v-.352l-9.886-1.142v.659Z" transform="translate(-308.594 -213.165)" fill="#fff"/>
      <path id="Caminho_16689" data-name="Caminho 16689" d="M476.93,396.78l-3.515-.22c4.174-.483,7.953-1.055,11.732-1.362s7.865-.483,12.347-.747c-.659-.615-1.011-1.186-1.362-1.23-4.789-.264-9.623-.483-14.456-.483l6.986,1.186v.439a32.075,32.075,0,0,1-3.647.352l-16.873-.308c-1.274,0-2.68-.615-3.647.967-.22.4-1.362.22-2.065.352a7.032,7.032,0,0,1-.4-1.582c0-.967.132-1.977.176-2.944a12,12,0,0,0,2.153.571c4.746.352,9.491.659,14.237.659l-2.021-.352v-.4h5.58v-.22H471.437l-.088-.615c8.832-1.142,17.708-1.67,26.935-2.549.132,1.45.308,2.724.308,4,0,16.917.088,33.79,0,50.707-.044,7.953-.4,15.95-.615,23.9a10.155,10.155,0,0,1-.22,1.494l-33.922-5.141c-3.12-.483-3.12-.527-2.988-3.559.308-9.271,1.23-18.587.747-27.814-.4-7.294-.571-14.588-.439-21.882.088-3.867.439-7.733.747-11.6.176-2.241,1.011-2.636,3.208-1.889a7.206,7.206,0,0,0,2.153.22Zm8.656,44.819L484.4,455.7h.571l.439-3.515h.439l.264,3.208c.571-4.086.923-8.129,1.362-12.215C487.563,441.951,487.255,441.248,485.586,441.6Zm-24.167,11.644H476.4c.308,0,.615-.571.967-.879-.352-.22-.747-.7-1.1-.659Zm35.459-55.232c-1.1-1.582-8-2.285-13.314-1.67Zm-1.758,44.907h-.571v10.15h.571Zm-11.732,10.238h.4V442.346h-.4Z" transform="translate(-258.146 -217.594)" fill="#fff"/>
      <path id="Caminho_16690" data-name="Caminho 16690" d="M498.45,569.452c-12.083-1.889-24.255-2.856-36.25-5.4l.088-.747,36.338,4.877Z" transform="translate(-258.927 -315.699)" fill="#fff"/>
      <path id="Caminho_16691" data-name="Caminho 16691" d="M349.088,394.383,325.8,395.7v-.483l23.288-1.318Z" transform="translate(-182.461 -220.733)" fill="#fff"/>
      <path id="Caminho_16692" data-name="Caminho 16692" d="M430.432,560.888l-17.532-2.5.088-.483,17.576,2.285Z" transform="translate(-231.289 -312.672)" fill="#fff"/>
      <path id="Caminho_16693" data-name="Caminho 16693" d="M335.1,548.073l-10.5-1.626.088-.747,10.546,1.362Z" transform="translate(-181.788 -305.832)" fill="#fff"/>
      <path id="Caminho_16694" data-name="Caminho 16694" d="M744.759,408.489c-2.724.264-5.492.571-8.217.791-.351.044-.747-.439-1.142-.659.439-.264.879-.747,1.318-.791,2.68-.088,5.4-.044,8.085-.044Z" transform="translate(-412.083 -228.511)" fill="#fff"/>
      <path id="Caminho_16695" data-name="Caminho 16695" d="M720.373,595.117l-8.173-1.406-2.9-.483.088-.527,14.193,1.933v.439h-3.252Z" transform="translate(-397.452 -332.18)" fill="#fff"/>
      <path id="Caminho_16696" data-name="Caminho 16696" d="M601.488,579l13.314,1.8-.088.527L601.4,579.483Z" transform="translate(-336.963 -324.5)" fill="#fff"/>
      <path id="Caminho_16697" data-name="Caminho 16697" d="M729.491,426.49,728.7,415.9h.527l.835,10.546Z" transform="translate(-408.327 -233.066)" fill="#fff"/>
      <path id="Caminho_16698" data-name="Caminho 16698" d="M395.13,554.526l-7.03-.7.088-.923,6.986,1.1Z" transform="translate(-217.386 -309.869)" fill="#fff"/>
      <path id="Caminho_16699" data-name="Caminho 16699" d="M438.753,389.264l-10.853.7v-.4L438.709,389Z" transform="translate(-239.698 -217.986)" fill="#fff"/>
      <path id="Caminho_16700" data-name="Caminho 16700" d="M473.432,386.615,482.7,386v.4l-9.4.7Z" transform="translate(-265.15 -216.304)" fill="#fff"/>
      <path id="Caminho_16701" data-name="Caminho 16701" d="M1107.765,150.617l5.317-5.317.659.352.439,9.227h-.307l-.615-2.329h-.615l1.23,21.662h.307V164.106h.088l1.142,43.325h-.22l-.659-6.679H1114V211.3l-.571.22c-.967-.835-1.933-1.67-2.944-2.461a23.577,23.577,0,0,1-2.68-1.933,3.692,3.692,0,0,1-1.055-2.241q-.571-24.343-1.054-48.729c0-.879.044-1.758.044-2.636a3.471,3.471,0,0,1,2.021-3.032q-.7,23.859.088,47.719a1.89,1.89,0,0,0,.527-1.23c0-9.667,0-19.29-.088-28.956C1108.2,162.3,1107.941,156.461,1107.765,150.617Z" transform="translate(-619.674 -81.367)" fill="#fff"/>
      <path id="Caminho_16702" data-name="Caminho 16702" d="M1117.387,309.109l-3.208-.439c5.185,1.977,2.417,6.679,4,10.194.132-.835.352-1.626.439-2.461s.044-2.021.044-3.076V310.3c1.933.483,3.032,1.1,2.636,3.032a6.536,6.536,0,0,0,.264,2.592c.7,3.515-1.011,4.965-4.526,4.174a38.066,38.066,0,0,0-6.327-.571c-2.109-.088-2.329-.659-2.2-2.241a.736.736,0,0,0,0-.22c-1.362-6.723,3.691-9.4,8.3-12.962Z" transform="translate(-621.123 -170.391)" fill="#fff"/>
      <path id="Caminho_16703" data-name="Caminho 16703" d="M1108.8,301.1V289.5a77.392,77.392,0,0,1,6.547,4.13c.439.308.352,2.241-.176,2.68A77.2,77.2,0,0,1,1108.8,301.1Z" transform="translate(-621.412 -162.206)" fill="#fff"/>
      <path id="Caminho_16704" data-name="Caminho 16704" d="M1148.6,393.9l-.879-.4.22-.571c1.011-.044,2.285-.7,2.5,1.362s.4,4.789.4,7.162c0,.4-1.142,1.011-1.8,1.1s-2.241.439-2.285-1.186a34.222,34.222,0,0,1,.22-5.668C1147.109,394.994,1148.075,394.423,1148.6,393.9Z" transform="translate(-642.672 -220.113)" fill="#fff"/>
      <path id="Caminho_16705" data-name="Caminho 16705" d="M1113.6,143.37l-5.1,4.526c.132-1.23.264-2.417.439-3.559S1109.906,142.623,1113.6,143.37Z" transform="translate(-621.244 -80.097)" fill="#fff"/>
      <path id="Caminho_16706" data-name="Caminho 16706" d="M1189.947,421.115l-9.447-.483V420.5h9.4Z" transform="translate(-661.607 -235.645)" fill="#fff"/>
      <path id="Caminho_16707" data-name="Caminho 16707" d="M1105.2,264.056V252.5h.176v11.556Z" transform="translate(-619.394 -141.464)" fill="#fff"/>
      <path id="Caminho_16708" data-name="Caminho 16708" d="M1104.3,222.1V211.6h.088v10.5Z" transform="translate(-618.889 -118.535)" fill="#fff"/>
      <path id="Caminho_16709" data-name="Caminho 16709" d="M134,668.283l28.868-3.383.088.571-28.868,3.691Z" transform="translate(-74.938 -372.656)" fill="#fff"/>
      <path id="Caminho_16710" data-name="Caminho 16710" d="M327.3,646.6l9.93-.7v.439l-9.843,1.582Z" transform="translate(-183.302 -362.004)" fill="#fff"/>
      <path id="Caminho_16711" data-name="Caminho 16711" d="M457.6,634.5l-13.4,1.626v-.659l13.49-.967Z" transform="translate(-248.836 -355.614)" fill="#fff"/>
      <path id="Caminho_16712" data-name="Caminho 16712" d="M853.82,180.4v10.765h-.22V180.4Z" transform="translate(-478.346 -101.045)" fill="#fff"/>
      <path id="Caminho_16713" data-name="Caminho 16713" d="M740.8,202.445l7.47-1.845.22.879-7.6,1.538Z" transform="translate(-415.111 -112.369)" fill="#fff"/>
      <path id="Caminho_16714" data-name="Caminho 16714" d="M553.7,241.241l-9.315,1.274-.088-.527L560.162,239l.132.439-6.635,1.845Z" transform="translate(-304.952 -133.896)" fill="#fff"/>
      <path id="Caminho_16715" data-name="Caminho 16715" d="M1007.4,199.79V180.5h.132v19.334Z" transform="translate(-564.567 -101.101)" fill="#fff"/>
      <path id="Caminho_16716" data-name="Caminho 16716" d="M590.7,400.53H554.8v-.7c11.952-.879,23.9.088,35.9.044Z" transform="translate(-310.839 -223.848)"/>
      <path id="Caminho_16717" data-name="Caminho 16717" d="M556.282,519.45l-.308-3.515h-.264l-.527,3.6H554.7l1.142-12.874.527-.264c.308.747.923,1.494.879,2.2-.176,3.647-.527,7.294-.791,10.9Z" transform="translate(-310.783 -283.801)"/>
      <path id="Caminho_16718" data-name="Caminho 16718" d="M610.088,529.9l11.732.659.132.747c-.4.22-.835.659-1.23.571-3.559-.483-7.162-1.011-10.721-1.538Z" transform="translate(-341.784 -296.975)"/>
      <path id="Caminho_16719" data-name="Caminho 16719" d="M629.921,414.379H613.4V413.5l16.521.7Z" transform="translate(-343.69 -231.721)"/>
      <path id="Caminho_16720" data-name="Caminho 16720" d="M566.13,406.45l-9.93-.791V405l9.93,1.055Z" transform="translate(-311.624 -226.956)"/>
      <path id="Caminho_16721" data-name="Caminho 16721" d="M515.63,509.485c1.67-.352,1.977.352,1.845,1.67-.439,4.042-.835,8.129-1.362,12.215l-.264-3.208h-.439l-.439,3.515H514.4Z" transform="translate(-288.19 -285.48)"/>
      <path id="Caminho_16722" data-name="Caminho 16722" d="M462.2,533.978l14.808-1.582c.352-.044.747.439,1.1.659-.308.308-.615.879-.967.879Z" transform="translate(-258.927 -298.373)"/>
      <path id="Caminho_16723" data-name="Caminho 16723" d="M525.914,407.887l-13.314-1.67C517.917,405.6,524.815,406.306,525.914,407.887Z" transform="translate(-287.181 -227.514)"/>
      <path id="Caminho_16724" data-name="Caminho 16724" d="M538.171,512.444V522.55H537.6V512.4Z" transform="translate(-301.196 -287.164)"/>
      <path id="Caminho_16725" data-name="Caminho 16725" d="M512.2,522.065V511.3h.4v10.809Z" transform="translate(-286.957 -286.548)"/>
      <path id="Caminho_16726" data-name="Caminho 16726" d="M1109.978,157.344c.176,5.844.439,11.688.527,17.488.088,9.667.088,19.29.088,28.956a1.89,1.89,0,0,1-.527,1.23q-.791-23.859-.088-47.719Z" transform="translate(-621.887 -88.095)"/>
    </g>
  </g>
</svg>
