<svg xmlns="http://www.w3.org/2000/svg" width="30.707" height="26.142" viewBox="0 0 30.707 26.142">
  <g id="Layer_1-2" data-name="Layer 1-2" transform="translate(0.002 -0.246)">
    <path id="Path_27" data-name="Path 27" d="M8.844,28.218a14.826,14.826,0,0,1-8-2.329L.82,25.874a1.827,1.827,0,0,1,1.208-3.343,6.417,6.417,0,0,0,5.027-1.594,5.626,5.626,0,0,0,1.607-5.516,11.846,11.846,0,0,0-.836-1.951,17.052,17.052,0,0,1-.861-1.929A6.635,6.635,0,0,1,8.043,5.316,7.788,7.788,0,0,1,14.49,2.08a7.688,7.688,0,0,1,4.38,1.405,14.245,14.245,0,0,1,2.86,3.129,6.72,6.72,0,0,0,5.317,2.612,6.786,6.786,0,0,0,.767-.043,2.606,2.606,0,0,1,2.24,4.31,9.5,9.5,0,0,1-6.919,3.252,14.532,14.532,0,0,1-3.144,6.3,14.709,14.709,0,0,1-6.819,4.527,14.552,14.552,0,0,1-4.328.649ZM5.172,24.949a12.031,12.031,0,0,0,15.111-7.963c-.727.1-1.588.207-2.469.284-3.877.347-5.1-.14-5.728-.6a2.08,2.08,0,0,1-.566-.606A8.482,8.482,0,0,1,8.9,22.917a8.816,8.816,0,0,1-3.724,2.032ZM15.344,14.681c.578,0,1.353-.024,2.368-.116,1.885-.172,3.658-.479,3.994-.539a1.822,1.822,0,0,1,.5-.017c.231.022.462.035.693.035a6.8,6.8,0,0,0,4.95-2.144q-.4.035-.809.035A9.4,9.4,0,0,1,20,8.783a12.43,12.43,0,0,0-1.734,3.33,3.368,3.368,0,0,1-2.774,2.525ZM14.2,4.776a5.167,5.167,0,0,0-3.977,2.147,3.989,3.989,0,0,0-.693,3.714,14.733,14.733,0,0,0,.732,1.625,14.217,14.217,0,0,1,1.009,2.391,2.445,2.445,0,0,1,1.1-1.677A6.042,6.042,0,0,1,13.91,12.3l.177-.057c.255-.084.485-.149.693-.207a3.172,3.172,0,0,0,.693-.243,1.141,1.141,0,0,0,.231-.481A16.242,16.242,0,0,1,18.27,6.581a4.873,4.873,0,0,0-3.889-1.8h-.188Z" transform="translate(0.003 -1.833)" fill="#fff"/>
  </g>
</svg>
