<svg xmlns="http://www.w3.org/2000/svg" width="82.207" height="80.496" viewBox="0 0 82.207 80.496">
  <g id="icone2" transform="translate(-6.262 -10.379)">
    <path id="Caminho_2" data-name="Caminho 2" d="M85.275,45.639a2.341,2.341,0,0,1-1.448-.5L47.437,16.61,11.048,45.14a2.35,2.35,0,1,1-2.9-3.695L45.99,11.768a2.35,2.35,0,0,1,2.9,0L86.723,41.437a2.35,2.35,0,0,1-1.448,4.2Z" transform="translate(0)" fill="#a07987" stroke="#fff" stroke-width="1.6"/>
    <path id="Caminho_3" data-name="Caminho 3" d="M77.064,92.532H18.93a2.35,2.35,0,0,1-2.35-2.35V54.675a2.35,2.35,0,1,1,4.7,0V87.831H74.714V54.6a2.35,2.35,0,0,1,4.7,0V90.182a2.35,2.35,0,0,1-2.35,2.35Z" transform="translate(-0.56 -2.456)" fill="#a07987" stroke="#fff" stroke-width="1.6"/>
  </g>
</svg>
