<?xml version="1.0" encoding="utf-8"?>
<!-- Generator: Adobe Illustrator 28.0.0, SVG Export Plug-In . SVG Version: 6.00 Build 0)  -->
<svg version="1.1" id="Layer_1" xmlns="http://www.w3.org/2000/svg" xmlns:xlink="http://www.w3.org/1999/xlink" x="0px" y="0px"
	 viewBox="0 0 733.2 157.5" style="enable-background:new 0 0 733.2 157.5;" xml:space="preserve">
<style type="text/css">
	.st0{fill:#997886;}
</style>
<g>
	<path class="st0" d="M44.1,89.4c11.8,0,22.5-4.7,30.4-12.2l0,0l7.5-7.5c0-5.2-6.2-7.8-9.9-4.1l-2.7,2.7v-0.1
		c-0.4,0.4-0.8,0.8-1.2,1.2c-6.2,6.2-14.7,10-24.2,10c-9.5,0-18-3.8-24.2-10c-6.2-6.2-10-14.7-10-24.2c0-9.5,3.8-18,10-24.2
		c6.2-6.2,14.7-10,24.2-10c9.5,0,18,3.8,24.2,10c0.7,0.7,1.3,1.4,2,2.2l1.9,1.9c3.7,3.6,9.9,1,9.9-4.1v-0.2l-7.4-7.4l0,0
		C66.7,5.9,55.9,1.2,44.1,1.2c-12.2,0-23.2,4.9-31.2,12.9c-8,8-12.9,19-12.9,31.2c0,12.3,5.1,23.5,13.2,31.4
		c0.2,0.2,0.4,0.4,0.7,0.6c0.4,0.4,1,0.8,1.6,1.4c11,9.6,23.9,10.4,23.9,10.4C40.9,89.3,42.5,89.4,44.1,89.4"/>
</g>
<g>
	<path class="st0" d="M200,45.3c0-12.2-4.9-23.2-12.9-31.2c-8-8-19-12.9-31.2-12.9c-11.3,0-21.7,4.3-29.5,11.3l-0.1-0.1l-21,21V0
		h-9.9v85.8c0,2.7,2.2,5,5,5c2.7,0,5-2.2,5-5V57.1l21,21l0.1-0.1c4.3,3.8,9.3,6.8,14.8,8.8c5.3,1.9,10.9-2,10.9-7.6
		c-7.9-0.9-15-4.4-20.4-9.8c-0.2-0.2-0.4-0.5-0.6-0.7c0,0,0,0-0.1,0l-23.5-23.5L131.8,21c0,0,0,0,0,0c6.2-6.1,14.7-9.9,24.1-9.9
		c9.5,0,18,3.8,24.2,10c6.2,6.2,10,14.7,10,24.2c0,9.5-3.8,18-10,24.2c-0.8,0.8-1.6,1.5-2.4,2.2c0,0,0.1,0.1,0.1,0.1l-74.6,74.6
		c-0.9,0.9-1.9,1.3-3.1,1.3c-1.1,0-2.2-0.4-3.1-1.3L46.3,96c-7-0.3-13.3-2-16.8-3.2l60.6,60.6c2.8,2.8,6.4,4.2,10.1,4.2
		c3.6,0,7.3-1.4,10.1-4.2l77.1-77.1l0,0C195.1,68.3,200,57.4,200,45.3"/>
</g>
<g>
	<path d="M259.1,24.8c-4-3.1-8.2-4-13.3-4c-12.3,0-17.5,9.9-17.5,22.2s5.2,22.1,17.5,22.1c4.4,0,10.8-1.1,16.1-6l1.8,3
		c-4.6,4.9-10.6,6.8-17.8,6.8c-14.5,0-21.7-11.7-21.7-26.1c0-14.4,7.2-26.1,21.6-26.1c5.7,0,11.3,2.1,15.7,5.3L259.1,24.8z"/>
	<path d="M298.5,45.8h-27v22.7h-3.8V17.3h3.8v24.4h27V17.3h3.8v51.1h-3.8V45.8z"/>
	<path d="M372.3,48.1h-16.1v20.3h-3.9V17.3h19.8c7.5,0,13.6,6.5,13.6,15.8c0,8.5-4.2,12.1-9.5,14.8l8.6,20.5h-4.1L372.3,48.1z
		 M356.2,44.1h14.4c5.9,0,11.1-2.3,11.1-10.9c0-8.6-5.1-11.8-11.1-11.8h-14.4V44.1z"/>
	<path d="M390.2,17.3h3.8v47.1h24.9v4h-28.7V17.3z"/>
	<path d="M453.6,64.4v4h-29.9V17.3h29.9v4h-26.1v20.2h20.2v4h-20.2v18.7H453.6z"/>
	<path d="M493.1,17.3h3.8v51.1h-3.8V51.2l-29.9-27v44.3h-3.8V16l33.7,30V17.3z"/>
	<path d="M534,64.4v4h-29.9V17.3H534v4h-26.1v20.2H528v4h-20.2v18.7H534z"/>
	<path d="M550.5,17.3h3.8v27.9l25.1-27.9h5.1L567.8,36l21.1,32.5h-4.6c-0.5-0.6-0.5-0.7-19.1-29.6L554.3,51v17.5h-3.8V17.3z"/>
	<path d="M587.4,42.8c0-14.4,7.7-26.1,22-26.1s21.9,11.7,21.9,26.1c0,14.4-7.6,26.1-21.9,26.1S587.4,57.2,587.4,42.8z M627.3,43
		c0-12.3-5.5-22.2-17.8-22.2c-12.3,0-18,9.9-18,22.2s5.7,22.1,18,22.1C621.8,65.1,627.3,55.3,627.3,43z"/>
	<path d="M666.2,64.4v4h-29.9V17.3h29.9v4h-26.1v20.2h20.2v4h-20.2v18.7H666.2z"/>
	<path d="M668.4,17.3h33.5v4h-14.8v47.1h-3.8V21.4h-14.8V17.3z"/>
	<path d="M708.7,64.4h24.6v4h-31.3l24.7-47.1h-24.7v-4h31.3L708.7,64.4z"/>
</g>
<g>
	<path d="M351.2,105.8h-10.7v13.6h-2.6V85.3h13.2c5,0,9.1,4.3,9.1,10.5c0,5.6-2.8,8-6.4,9.9l5.8,13.7h-2.8L351.2,105.8z
		 M340.5,103.1h9.6c4,0,7.4-1.6,7.4-7.3c0-5.7-3.4-7.9-7.4-7.9h-9.6V103.1z"/>
	<path d="M385.3,119.6c-8.8-0.7-13.4-8.2-13.4-17.3c0-9.6,5.2-17.4,14.7-17.4c9.5,0,14.6,7.8,14.6,17.4c0,9.2-4.6,16.7-13.3,17.3
		v6.8h-2.5V119.6z M398.4,102.4c0-8.2-3.7-14.8-11.9-14.8c-8.2,0-12,6.6-12,14.8s3.8,14.8,12,14.8
		C394.8,117.2,398.4,110.6,398.4,102.4z"/>
	<path d="M414.6,105.2V85.3h2.5v19.1c0,8,1.6,12.8,10,12.8s10-4.8,10-12.8V85.3h2.5v19.9c0,9.4-3.2,14.5-12.4,14.5
		C417.8,119.7,414.6,114.5,414.6,105.2z"/>
	<path d="M454.6,85.3h2.5v34.1h-2.5V85.3z"/>
	<path d="M469.7,85.3H492V88h-9.9v31.4h-2.5V88h-9.9V85.3z"/>
	<path d="M524.5,116.7v2.7h-19.9V85.3h19.9V88h-17.4v13.5h13.4v2.7h-13.4v12.5H524.5z"/>
	<path d="M536.2,85.3h22.3V88h-9.9v31.4h-2.5V88h-9.9V85.3z"/>
	<path d="M571.2,105.2V85.3h2.5v19.1c0,8,1.6,12.8,10,12.8c8.4,0,10-4.8,10-12.8V85.3h2.5v19.9c0,9.4-3.2,14.5-12.4,14.5
		C574.3,119.7,571.2,114.5,571.2,105.2z"/>
	<path d="M624.4,105.8h-10.7v13.6h-2.6V85.3h13.2c5,0,9.1,4.3,9.1,10.5c0,5.6-2.8,8-6.4,9.9l5.8,13.7H630L624.4,105.8z M613.7,103.1
		h9.6c4,0,7.4-1.6,7.4-7.3c0-5.7-3.4-7.9-7.4-7.9h-9.6V103.1z"/>
</g>
<polygon points="306.1,68.7 310.3,68.7 317.8,49.3 330.1,49.3 328.6,45 319.5,45 327.6,24.1 345,68.7 349.2,68.7 327.7,13.2 
	315.2,45.1 306.9,45.1 305.4,49.3 313.6,49.3 "/>
<polygon points="300.7,119.6 303.3,119.6 308.1,107.3 315.9,107.3 315,104.5 309.2,104.5 314.4,91.2 325.5,119.6 328.1,119.6 
	314.4,84.2 306.5,104.6 301.2,104.6 300.2,107.2 305.4,107.2 "/>
<polygon points="646.5,119.6 649.2,119.6 653.9,107.3 661.8,107.3 660.8,104.5 655,104.5 660.2,91.2 671.3,119.6 673.9,119.6 
	660.2,84.2 652.3,104.6 647,104.6 646,107.2 651.3,107.2 "/>
<g>
</g>
<g>
</g>
<g>
</g>
<g>
</g>
<g>
</g>
<g>
</g>
<g>
</g>
<g>
</g>
<g>
</g>
<g>
</g>
<g>
</g>
<g>
</g>
<g>
</g>
<g>
</g>
<g>
</g>
</svg>
