<svg xmlns="http://www.w3.org/2000/svg" width="90.597" height="79.016" viewBox="0 0 90.597 79.016">
  <g id="icone5" transform="translate(0.753 -5.732)">
    <path id="Caminho_16" data-name="Caminho 16" d="M63.524,10.96a21.074,21.074,0,0,1,14.857,36l-.891.891L54.5,70.887l-4.1,4.106h0l-1.5,1.5-2.12,2.12a3.233,3.233,0,0,1-4.543,0l-2.164-2.191-.178-.187h0l-5.344-5.344-1.318-1.3L11.579,47.916l-.891-.891a21.093,21.093,0,1,1,29.758-29.9l.891.891,3.2,3.18,3.153-3.153.891-.891a20.976,20.976,0,0,1,14.937-6.164m0-4.453a25.492,25.492,0,0,0-18.09,7.446l-.891.891-.891-.891A25.561,25.561,0,1,0,7.473,50.107L8.363,51,31.388,74.031h0l5.344,5.344.089.1,2.28,2.289a7.687,7.687,0,0,0,10.84,0l2.12-2.111h0l5.594-5.594h0l23-23.025.891-.891A25.536,25.536,0,0,0,63.5,6.5h0Z" transform="translate(0)" fill="#a07987" stroke="#fff" stroke-width="1.5"/>
  </g>
</svg>
