<svg xmlns="http://www.w3.org/2000/svg" width="80.103" height="79.335" viewBox="0 0 80.103 79.335">
  <g id="icone1" transform="translate(-59.928 -49.512)">
    <g id="noun_Money_2351614" transform="translate(57.283 46.762)">
      <g id="Grupo_1" data-name="Grupo 1" transform="translate(2.645 2.75)">
        <path id="Caminho_1" data-name="Caminho 1" d="M42.7,273.29a39.669,39.669,0,1,0,40.05,39.667A39.886,39.886,0,0,0,42.7,273.29Zm0,2.973a36.7,36.7,0,1,1-37.079,36.7,36.866,36.866,0,0,1,37.079-36.7Zm-.03,16.443a1.486,1.486,0,0,0-1.464,1.508v2.992a9.325,9.325,0,0,0-4.011,1.694,8.2,8.2,0,0,0-3.246,5.965q-.005.049-.008.1a7.707,7.707,0,0,0,2.386,6.062,13.437,13.437,0,0,0,5.017,2.514,26.836,26.836,0,0,1,4.69,1.781,5.086,5.086,0,0,1,2.592,3.072,5.991,5.991,0,0,1-1.224,5.1,5.834,5.834,0,0,1-4.124,1.8A7.012,7.012,0,0,1,38.7,323.87a5.752,5.752,0,0,1-2.2-4.533,1.486,1.486,0,1,0-2.97.118,8.924,8.924,0,0,0,3.329,6.747,9.652,9.652,0,0,0,4.342,1.915v2.839a1.486,1.486,0,1,0,2.973,0v-2.762a8.624,8.624,0,0,0,5.439-2.719,9.185,9.185,0,0,0,1.944-7.662,1.485,1.485,0,0,0-.048-.216,8.366,8.366,0,0,0-4.008-4.864,27.38,27.38,0,0,0-5.238-2.022,11.414,11.414,0,0,1-3.956-1.9,4.357,4.357,0,0,1-1.386-3.742,5.035,5.035,0,0,1,2.05-3.786,6.787,6.787,0,0,1,4.193-1.249,6.281,6.281,0,0,1,4.015,1.506,5.325,5.325,0,0,1,1.7,4.286,1.486,1.486,0,1,0,2.973.034,8.5,8.5,0,0,0-2.674-6.526,9,9,0,0,0-5-2.2v-2.916a1.487,1.487,0,0,0-1.509-1.508Z" transform="translate(-2.645 -273.29)" fill="#a07987"/>
      </g>
    </g>
  </g>
</svg>
