<svg xmlns="http://www.w3.org/2000/svg" width="88.104" height="81.088" viewBox="0 0 88.104 81.088">
  <g id="icone6" transform="translate(55.2 -166.8)">
    <path id="Caminho_17" data-name="Caminho 17" d="M31.248,244.776H12.9V238.11H27.512a1.452,1.452,0,0,0,1.28-2.14L16.286,212.413h7.279a1.452,1.452,0,0,0,1.28-2.14l-10.981-20.7h3.771a1.452,1.452,0,0,0,1.28-2.14L8.48,167.772A1.457,1.457,0,0,0,7.2,167a1.436,1.436,0,0,0-1.28.772L-4.518,187.435a1.451,1.451,0,0,0,.035,1.438,1.449,1.449,0,0,0,1.245.7H.534l-10.981,20.7a1.451,1.451,0,0,0,.035,1.438,1.449,1.449,0,0,0,1.245.7h7.279L-14.393,235.97a1.451,1.451,0,0,0,.035,1.438,1.449,1.449,0,0,0,1.245.7H1.5v6.665H-23.2v-6.49h3.4a1.452,1.452,0,0,0,1.456-1.456,1.452,1.452,0,0,0-1.456-1.456h-9.7a1.452,1.452,0,0,0-1.456,1.456,1.452,1.452,0,0,0,1.456,1.456h3.4v6.49h-7.244V229.007h8.174a1.452,1.452,0,0,0,1.456-1.456,1.452,1.452,0,0,0-1.456-1.456H-44.44a1.452,1.452,0,0,0-1.456,1.456,1.452,1.452,0,0,0,1.456,1.456h8.174v15.769h-7.227v-6.49h3.4a1.452,1.452,0,0,0,1.456-1.456,1.452,1.452,0,0,0-1.456-1.456h-9.718a1.452,1.452,0,0,0-1.456,1.456,1.452,1.452,0,0,0,1.456,1.456h3.4v6.49h-7.139A1.452,1.452,0,0,0-55,246.232a1.452,1.452,0,0,0,1.456,1.456H31.248a1.456,1.456,0,0,0,0-2.912ZM-10.709,235.2l12.1-22.786H5.832a1.456,1.456,0,1,0,0-2.912H-6.763L3.814,189.593H5.832a1.456,1.456,0,1,0,0-2.912H-.816l8-15.12,8.016,15.1H11.427a1.452,1.452,0,0,0-1.28,2.14l10.981,20.7H13.848a1.452,1.452,0,0,0-1.28,2.14L25.074,235.2H-10.709Zm15.085,9.577V238.11H9.989v6.665Z" fill="#a07987" stroke="#fff" stroke-width="0.4"/>
  </g>
</svg>
