<svg xmlns="http://www.w3.org/2000/svg" width="21.14" height="21.15" viewBox="0 0 21.14 21.15">
  <path id="insta" d="M10.58,1.91c2.82,0,3.16.01,4.28.06,2.87.13,4.21,1.49,4.34,4.34.05,1.12.06,1.45.06,4.27s-.01,3.16-.06,4.27c-.13,2.84-1.47,4.21-4.34,4.34-1.12.05-1.45.06-4.28.06s-3.16-.01-4.27-.06c-2.87-.13-4.21-1.5-4.34-4.34-.05-1.12-.06-1.45-.06-4.27s.01-3.16.06-4.27C2.1,3.46,3.43,2.1,6.3,1.97,7.42,1.92,7.75,1.91,10.58,1.91Zm0-1.91C7.71,0,7.35.01,6.22.06,2.38.24.24,2.37.06,6.22.01,7.35,0,7.71,0,10.58s.01,3.23.06,4.36c.18,3.84,2.31,5.98,6.15,6.15,1.13.05,1.49.06,4.36.06s3.23-.01,4.36-.06c3.84-.18,5.98-2.31,6.15-6.15.05-1.13.06-1.49.06-4.36s-.01-3.23-.06-4.36C20.91,2.38,18.77.24,14.93.07,13.81.01,13.45,0,10.58,0Zm0,5.15a5.43,5.43,0,1,0,5.43,5.43A5.429,5.429,0,0,0,10.58,5.15Zm0,8.95a3.53,3.53,0,1,1,3.53-3.53A3.529,3.529,0,0,1,10.58,14.1ZM16.23,3.66A1.27,1.27,0,1,0,17.5,4.93,1.272,1.272,0,0,0,16.23,3.66Z" fill="#646464"/>
</svg>
