<svg xmlns="http://www.w3.org/2000/svg" xmlns:xlink="http://www.w3.org/1999/xlink" width="186.337" height="45.353" viewBox="0 0 186.337 45.353">
  <defs>
    <clipPath id="clip-path">
      <rect id="Retângulo_464" data-name="Retângulo 464" width="186.337" height="45.353" fill="none"/>
    </clipPath>
  </defs>
  <g id="Artwork_17" data-name="Artwork 17" transform="translate(93.169 22.677)">
    <g id="Artwork_17-2" data-name="Artwork 17" transform="translate(-93.169 -22.677)" clip-path="url(#clip-path)">
      <path id="Caminho_15671" data-name="Caminho 15671" d="M12.521,26.464a12.651,12.651,0,0,0,8.773-3.509h0l2.151-2.123a1.67,1.67,0,0,0-2.858-1.189l-.764.764h0l-.34.34a9.849,9.849,0,1,1,0-13.924l.566.623.538.538a1.67,1.67,0,0,0,2.858-1.189V6.738L21.322,4.615h0A12.7,12.7,0,1,0,3.634,22.841l.2.17.481.4a12.679,12.679,0,0,0,6.877,3l1.358.085" transform="translate(0.158 -0.738)" fill="#997886"/>
      <path id="Caminho_15672" data-name="Caminho 15672" d="M79.075,13.047a12.679,12.679,0,0,0-21.2-9.424h-.028L51.82,9.651V0H48.962V24.707a1.429,1.429,0,1,0,2.858,0V16.443L57.877,22.5h.028a12.679,12.679,0,0,0,4.245,2.519,2.349,2.349,0,0,0,3.141-2.208,9.792,9.792,0,0,1-5.858-2.83l-.2-.2h-.028l-6.736-6.736,6.99-6.99h0a9.849,9.849,0,0,1,13.9,13.924l-.708.623h.028L51.226,42.141a1.245,1.245,0,0,1-1.755,0L34.84,27.622A17.689,17.689,0,0,1,30,26.717L47.434,44.15a4.1,4.1,0,0,0,5.8,0L75.424,21.962h0a12.651,12.651,0,0,0,3.651-8.915" transform="translate(-21.51)" fill="#997886"/>
      <path id="Caminho_15673" data-name="Caminho 15673" d="M288.228,93.76l2.349,4.613a.193.193,0,0,1-.2.2h-.453a.4.4,0,0,1-.311-.2l-2.292-4.557h-4.217V98.43a.17.17,0,0,1-.17.142h-.566a.17.17,0,0,1-.17-.142V86.741a.17.17,0,0,1,.17-.142h5.292a3.4,3.4,0,0,1,3.2,3.679c0,2.151-1.132,3.226-2.632,3.481m-5.094-.906h4.189a2.281,2.281,0,0,0,2.6-2.547,2.456,2.456,0,0,0-2.6-2.774h-4.217Z" transform="translate(-202.333 -62.091)" fill="#18171c"/>
      <path id="Caminho_15674" data-name="Caminho 15674" d="M324.23,98.338V99.3c0,.538.141.934,1.16.934h.255a.255.255,0,0,1,.2.085,2.243,2.243,0,0,1,.113.481c0,.028-.028.085-.113.113a2.632,2.632,0,0,1-.708.085c-.962,0-1.811-.17-1.811-2.094v-.538a6.113,6.113,0,1,1,.877,0m-.453-.877a5.207,5.207,0,1,0-5.151-5.207,5.151,5.151,0,0,0,5.179,5.179" transform="translate(-227.75 -61.772)" fill="#18171c"/>
      <path id="Caminho_15675" data-name="Caminho 15675" d="M367.928,93.562V86.741a.17.17,0,0,1,.17-.142h.538a.17.17,0,0,1,.17.142v6.34c0,3.2,1.16,4.726,4.1,4.726s4.1-1.528,4.1-4.726v-6.34a.17.17,0,0,1,.17-.142h.538a.17.17,0,0,1,.17.142V93.59c0,3.283-1.726,5.094-5.009,5.094S367.9,96.873,367.9,93.59" transform="translate(-263.779 -62.091)" fill="#18171c"/>
      <path id="Caminho_15676" data-name="Caminho 15676" d="M412.3,86.741a.17.17,0,0,1,.17-.142h.538a.17.17,0,0,1,.17.142V98.43a.17.17,0,0,1-.17.142h-.538a.17.17,0,0,1-.17-.142Z" transform="translate(-295.613 -62.091)" fill="#18171c"/>
      <path id="Caminho_15677" data-name="Caminho 15677" d="M429.53,86.7v.566a.17.17,0,0,1-.17.2h-3.481v10.9a.17.17,0,0,1-.17.142h-.538a.17.17,0,0,1-.17-.141v-10.9h-3.538a.17.17,0,0,1-.17-.2V86.7a.2.2,0,0,1,.2-.2h7.839a.2.2,0,0,1,.2.2" transform="translate(-302.06 -62.019)" fill="#18171c"/>
      <path id="Caminho_15678" data-name="Caminho 15678" d="M462.592,92.289a.2.2,0,0,1,.2.2v.566a.17.17,0,0,1-.17.2h-5.349v4.387h6.707a.2.2,0,0,1,.2.2V98.4a.17.17,0,0,1-.17.2h-7.443a.17.17,0,0,1-.17-.2V86.741a.17.17,0,0,1,.17-.142h7.443a.2.2,0,0,1,.2.2v.566a.17.17,0,0,1-.17.2H457.3v4.755Z" transform="translate(-327.226 -62.091)" fill="#18171c"/>
      <path id="Caminho_15679" data-name="Caminho 15679" d="M497,86.7v.566a.17.17,0,0,1-.17.2H493.35v10.9a.17.17,0,0,1-.17.142h-.538a.17.17,0,0,1-.17-.141v-10.9h-3.509a.17.17,0,0,1-.17-.2V86.7a.2.2,0,0,1,.2-.2h7.84a.2.2,0,0,1,.2.2" transform="translate(-350.456 -62.019)" fill="#18171c"/>
      <path id="Caminho_15680" data-name="Caminho 15680" d="M523.728,93.562V86.741a.17.17,0,0,1,.17-.142h.538a.17.17,0,0,1,.17.142v6.34c0,3.2,1.16,4.726,4.1,4.726s4.1-1.528,4.1-4.726v-6.34a.17.17,0,0,1,.17-.142h.538a.17.17,0,0,1,.17.142V93.59c0,3.283-1.726,5.094-5.009,5.094S523.7,96.873,523.7,93.59" transform="translate(-375.485 -62.091)" fill="#18171c"/>
      <path id="Caminho_15681" data-name="Caminho 15681" d="M574.1,93.76l2.349,4.613a.193.193,0,0,1-.2.2H575.8a.4.4,0,0,1-.311-.2l-2.292-4.557h-4.189V98.43a.17.17,0,0,1-.17.142h-.566a.17.17,0,0,1-.17-.142V86.741a.17.17,0,0,1,.17-.142h5.292a3.4,3.4,0,0,1,3.2,3.679c0,2.151-1.132,3.226-2.632,3.481m-5.094-.906h4.189a2.281,2.281,0,0,0,2.6-2.547,2.456,2.456,0,0,0-2.6-2.774h-4.217Z" transform="translate(-407.319 -62.091)" fill="#18171c"/>
      <path id="Caminho_15682" data-name="Caminho 15682" d="M621.6,98.256h-.453a.391.391,0,0,1-.255-.142l-1.387-2.292-.368-.623h0L614.5,87.558l-3.821,6.368h3.566a.2.2,0,0,1,.2.2v.566a.17.17,0,0,1-.17.2h-4.16l-.2.34h0l-.368.623-1.387,2.292a.4.4,0,0,1-.283.142h-.453c-.113,0-.17-.113-.141-.255l1.868-3.141h-1.585a.17.17,0,0,1-.17-.2v-.566a.2.2,0,0,1,.2-.2h2.123l4.613-7.726h.34L621.744,98c.028.142-.028.255-.142.255" transform="translate(-435.406 -61.804)" fill="#18171c"/>
      <path id="Caminho_15683" data-name="Caminho 15683" d="M239.231,98.256h-.453a.4.4,0,0,1-.283-.142l-1.387-2.292-.368-.623h0l-4.613-7.641-3.821,6.368h3.566a.2.2,0,0,1,.2.2v.566a.17.17,0,0,1-.17.2h-4.189l-.2.34h0l-.368.623-1.387,2.292a.4.4,0,0,1-.283.142h-.453c-.113,0-.17-.113-.142-.255l1.868-3.141h-1.557a.17.17,0,0,1-.17-.2v-.566a.2.2,0,0,1,.2-.2h2.123l4.613-7.726h.34L239.372,98c.028.142-.028.255-.141.255" transform="translate(-161.232 -61.804)" fill="#18171c"/>
      <path id="Caminho_15684" data-name="Caminho 15684" d="M287.972,37.421V33.8h.764v7.019h-.764V38.44l-3.707-3.113v5.491H283.5V33.6Z" transform="translate(-203.265 -24.091)" fill="#18171c"/>
      <path id="Caminho_15685" data-name="Caminho 15685" d="M318,31.357c0-1.981,1.16-3.594,3.141-3.594s3.141,1.613,3.141,3.594-1.16,3.594-3.141,3.594S318,33.338,318,31.357m5.49.028c0-1.557-.792-2.83-2.349-2.83s-2.349,1.274-2.349,2.83.792,2.83,2.349,2.83,2.349-1.274,2.349-2.83m-1.981-4.415h-.679l.764-1.67h1.019Z" transform="translate(-228.001 -18.14)" fill="#18171c"/>
      <path id="Caminho_15686" data-name="Caminho 15686" d="M358.909,34.919a5.49,5.49,0,0,0-1.358-.226c-1.3,0-1.358.877-1.358,1.132,0,1.613,3.481,1.132,3.481,3.509,0,1.132-1.217,1.755-2.179,1.755a4.019,4.019,0,0,1-2.094-.566l.255-.623a4.047,4.047,0,0,0,1.783.453c.821,0,1.472-.368,1.472-1.047,0-1.585-3.481-1.16-3.481-3.509,0-1.217.736-1.9,2.066-1.9a4.9,4.9,0,0,1,1.726.368Z" transform="translate(-254.816 -24.306)" fill="#18171c"/>
      <path id="Caminho_15687" data-name="Caminho 15687" d="M439.292,36.034v4.783H438.5V33.6l2.972,4.047,2.943-4.047v7.217h-.764V36.034l-2.179,2.972Z" transform="translate(-314.398 -24.091)" fill="#18171c"/>
      <path id="Caminho_15688" data-name="Caminho 15688" d="M510.264,36.034v4.783H509.5V33.6l2.943,4.047,2.972-4.047v7.217h-.792V36.034l-2.179,2.972Z" transform="translate(-365.304 -24.091)" fill="#18171c"/>
      <path id="Caminho_15689" data-name="Caminho 15689" d="M546.3,37.594c0-1.981,1.16-3.594,3.141-3.594s3.141,1.613,3.141,3.594-1.16,3.594-3.141,3.594-3.141-1.613-3.141-3.594m5.49.028c0-1.557-.792-2.83-2.349-2.83s-2.349,1.274-2.349,2.83.792,2.83,2.349,2.83,2.349-1.274,2.349-2.83" transform="translate(-391.689 -24.377)" fill="#18171c"/>
      <path id="Caminho_15690" data-name="Caminho 15690" d="M587.209,34.919a5.491,5.491,0,0,0-1.359-.226c-1.3,0-1.358.877-1.358,1.132,0,1.613,3.481,1.132,3.481,3.509,0,1.132-1.217,1.755-2.179,1.755a4.019,4.019,0,0,1-2.094-.566l.255-.623a4.048,4.048,0,0,0,1.783.453c.821,0,1.472-.368,1.472-1.047,0-1.585-3.481-1.16-3.481-3.509,0-1.217.736-1.9,2.066-1.9a4.9,4.9,0,0,1,1.726.368Z" transform="translate(-418.504 -24.306)" fill="#18171c"/>
      <path id="Caminho_15691" data-name="Caminho 15691" d="M407.144,41.066l-.509.311a.113.113,0,0,1-.141-.028l-3.226-5.434-1.7,2.83h1.5a.113.113,0,0,1,.113.113v.594a.113.113,0,0,1-.113.113h-1.981l-1.047,1.755a.113.113,0,0,1-.17.028l-.509-.311a.113.113,0,0,1-.028-.17l.821-1.358h-.679a.113.113,0,0,1-.113-.113v-.509a.113.113,0,0,1,.113-.113h1.189l2.547-4.217a.141.141,0,0,1,.226,0l3.821,6.4a.113.113,0,0,1-.028.142" transform="translate(-286.296 -24.736)" fill="#18171c"/>
      <path id="Caminho_15692" data-name="Caminho 15692" d="M478.544,41.066l-.509.311a.113.113,0,0,1-.142-.028l-3.226-5.434-1.7,2.83h1.5a.113.113,0,0,1,.113.113v.594a.113.113,0,0,1-.113.113h-1.981l-1.047,1.755a.113.113,0,0,1-.17.028l-.509-.311a.113.113,0,0,1-.028-.17l.792-1.358h-.679a.113.113,0,0,1-.113-.113v-.509a.113.113,0,0,1,.113-.113h1.189l2.547-4.217a.141.141,0,0,1,.226,0l3.821,6.4a.085.085,0,0,1-.028.142" transform="translate(-337.489 -24.736)" fill="#18171c"/>
    </g>
  </g>
</svg>
