<svg xmlns="http://www.w3.org/2000/svg" width="21.15" height="21.15" viewBox="0 0 21.15 21.15">
  <path id="pinterest" d="M114.69,0a10.58,10.58,0,0,0-3.86,20.43,9.959,9.959,0,0,1,.04-3.03c.19-.83,1.24-5.26,1.24-5.26a3.762,3.762,0,0,1-.32-1.57c0-1.47.85-2.57,1.91-2.57a1.333,1.333,0,0,1,1.34,1.49,21.171,21.171,0,0,1-.88,3.52,1.537,1.537,0,0,0,1.57,1.91c1.88,0,3.33-1.98,3.33-4.84a4.175,4.175,0,0,0-4.42-4.3,4.583,4.583,0,0,0-4.78,4.59,4.08,4.08,0,0,0,.79,2.41.292.292,0,0,1,.07.3l-.29,1.2c-.05.19-.15.24-.35.14-1.32-.62-2.15-2.55-2.15-4.1,0-3.34,2.42-6.4,6.99-6.4a6.21,6.21,0,0,1,6.52,6.11c0,3.65-2.3,6.58-5.49,6.58a2.834,2.834,0,0,1-2.42-1.21l-.66,2.51a11.448,11.448,0,0,1-1.32,2.77,10.448,10.448,0,0,0,3.13.47A10.575,10.575,0,1,0,114.69,0Z" transform="translate(-104.11)" fill="#646464" fill-rule="evenodd"/>
</svg>
