<svg xmlns="http://www.w3.org/2000/svg" width="19" height="19" viewBox="0 0 19 19">
  <path id="whats-green" d="M16.154,2.761A9.418,9.418,0,0,0,1.336,14.123L0,19l4.992-1.31a9.386,9.386,0,0,0,4.5,1.145h0A9.506,9.506,0,0,0,19,9.419,9.452,9.452,0,0,0,16.154,2.761ZM9.5,17.248a7.812,7.812,0,0,1-3.987-1.09l-.284-.17-2.96.776.789-2.888-.187-.3A7.841,7.841,0,1,1,17.41,9.419,7.913,7.913,0,0,1,9.5,17.248Zm4.292-5.861c-.233-.119-1.391-.687-1.607-.763s-.373-.119-.53.119-.606.763-.746.925-.276.178-.509.059a6.4,6.4,0,0,1-3.2-2.8c-.242-.416.242-.386.691-1.285a.436.436,0,0,0-.021-.411c-.059-.119-.53-1.277-.725-1.747s-.386-.394-.53-.4-.293-.008-.45-.008a.872.872,0,0,0-.628.293,2.644,2.644,0,0,0-.823,1.964,4.609,4.609,0,0,0,.958,2.434,10.513,10.513,0,0,0,4.021,3.554,4.6,4.6,0,0,0,2.825.589,2.41,2.41,0,0,0,1.586-1.12,1.967,1.967,0,0,0,.136-1.12C14.178,11.561,14.021,11.5,13.788,11.387Z" fill="#25d366"/>
</svg>
